<svg id="Livello_1" data-name="Livello 1" xmlns="http://www.w3.org/2000/svg" viewBox="0 0 2473.81 411.95"><title>DIBRIS_UniGe_black_orizzontale</title><path d="M221.81,55.77c0-6.43-.85-8.15-6.86-8.58l-27-3V16.73H302.47V44.19l-28.74,3.43c-6.44.86-6.87,1.72-6.87,8.15V220.53c0,77.22-43.33,112-117.56,112-81.94,0-115.41-37.76-115.41-113.27V55.77c0-6.43-.86-8.15-6.86-8.58l-27-3V16.73H119.7V44.19L91,47.62c-6.43.86-6.86,1.72-6.86,8.15V211.94c0,54.5,18.88,78.95,67.79,78.95,48.48,0,69.93-20.16,69.93-77.65Z"/><path d="M461.19,327.36v-27l21.45-2.58c6-.85,6.87-3.43,6.87-8.57V189.63c0-25.74-3-47.19-30.46-47.19-21.89,0-44.63,12-58.79,22.31V288.32c0,6.86.43,7.72,6.87,8.58l22.74,3v27.46H323.47V299.47l20.59-2.57c6-.86,6.87-2.15,6.87-8.58V150.17c0-4.72-1.29-7.73-5.58-9L321.75,133,326,105.54h63.5l3.43,23.6,1.72.43c24-16.3,49.34-28.32,80.23-28.32,46.33,0,63.92,29.18,63.92,78.52V288.32c0,6.86.43,7.72,6.87,8.58l23.6,3v27.46Z"/><path d="M587.73,327.36v-27l25.74-3.43c6-.86,6.87-2.15,6.87-8.58V150.17c0-4.72-1.29-7.73-5.58-9L591.16,133l4.29-27.46h74.22V288.32c0,6.86.43,7.72,6.87,8.58l25.31,3v27.46ZM639.64,63.49c-20.59,0-32.17-11.57-32.17-32.17C607.47,11.15,619.05,0,639.64,0c20.17,0,32.18,11.15,32.18,31.32C671.82,51.92,659.81,63.49,639.64,63.49Z"/><path d="M997,213.66c-5.15.43-6.86,1.72-6.86,6v92.25c-32.61,15.44-75.51,20.59-111.13,20.59-117.13,0-157.46-69.08-157.46-161.32,0-91.82,52.77-160,160.89-160,30.89,0,70.8,7.73,97,24.89v81.09l-47.62-3.44-6.44-38.61c-1.29-6-3-7.72-6.87-8.58A158.89,158.89,0,0,0,879,60.92c-55.34,0-88.38,42.05-88.38,109.41,0,70.79,30,112.84,91.39,112.84a229.24,229.24,0,0,0,35.61-3c4.72-.85,6.86-2.14,6.86-7.72v-56.2H876.89l6-38.62h131.72v34.32Z"/><path d="M1229.11,310.63c-26.61,12.87-55.78,21.88-88,21.88C1058.34,332.51,1030,281,1030,214.09c0-77.66,47.62-114.55,106.4-114.55,56.63,0,94.39,29.6,94.39,103.83,0,5.15-.43,20.16-.86,28.74H1098.67c2.15,30.46,15.45,50.63,50.63,50.63,16.74,0,34.75-3.86,63.93-14.59Zm-61.79-119.28c-.43-36-14.59-45.48-32.18-45.48-18.45,0-33.47,10.3-36,45.48Z"/><rect x="1370.18" y="18.95" width="10.47" height="393"/><path d="M1661.58,123.94q31.8,24,31.8,87.89,0,62.63-31.15,88.22t-79.74,25.6h-64.58V100h59Q1629.78,100,1661.58,123.94Zm-95.72,11.25V290.43h19.57q27.71,0,42.88-17.12t15.17-61.48q0-30.65-7.67-47.61t-20.38-23q-12.72-6-31-6Z"/><path d="M1777.84,325.65H1729.9V100h47.94Z"/><path d="M1978.25,222.76q14.19,12.23,14.19,37.34,0,35.55-25.44,50.55t-70.77,15h-70.45V100h61.64q46.32,0,70.78,13.69t24.46,44q0,19.91-11.91,32.13a59.8,59.8,0,0,1-29.51,16.47Q1964.06,210.54,1978.25,222.76Zm-104.52-88.22v57.07h23.48q17.61,0,27.07-7.34t9.46-22.34q0-15-10.11-21.2T1892,134.54Zm57.07,148.88q11.75-6.68,11.74-25.28,0-33.91-41.74-33.91h-27.07v65.88h22.83Q1919.06,290.11,1930.8,283.42Z"/><path d="M2098.76,237.27H2074.3v88.38h-47.94V100h70.44q45.33,0,68.16,16.79t22.83,50.72q0,22.5-10.76,36.85t-33.59,24.13l58,97.19H2147Zm-24.46-33.92h25.11q19.24,0,29-8.64t9.78-27.23q0-17.29-10.27-25.28t-32.13-8H2074.3Z"/><path d="M2274.55,325.65h-48V100h48Z"/><path d="M2433.86,101.76a103.61,103.61,0,0,1,33.43,21.36l-22.83,26.42a88.45,88.45,0,0,0-24.13-14.35,72.34,72.34,0,0,0-25.77-4.57q-15,0-24,6.36t-9,18.1q0,8.16,3.75,13.38t13.21,9.78q9.47,4.57,28.38,10.44,33.59,10.75,50.22,26.58t16.63,45.17q0,20.86-10.43,36.69t-30.33,24.78q-19.9,9-46.64,9t-47.62-8.48a109.69,109.69,0,0,1-35.87-23.15l24.78-27.07A95.5,95.5,0,0,0,2354.45,289a80.45,80.45,0,0,0,30.66,5.71q17.61,0,28.21-8.15t10.6-22.83q0-9.13-3.76-15.17t-12.88-10.92q-9.14-4.89-26.41-10.11-36.87-11.42-52.68-27.4t-15.81-41.75q0-18.9,10.11-33.42t28-22.34q17.94-7.83,40.77-7.83Q2415.77,94.75,2433.86,101.76Z"/></svg>