<svg id="Livello_1" data-name="Livello 1" xmlns="http://www.w3.org/2000/svg" viewBox="0 0 2687.08 393.47"><title>dibris_extended_white</title><rect x="923.09" width="9.79" height="393.47" style="fill:#fff"/><path d="M1040.07,54.18q10.54,7.88,10.54,28.85,0,20.67-10.27,29.06t-26.66,8.41H991.42V46.32h20.66Q1029.53,46.32,1040.07,54.18ZM1009,59.05v48.71h5.78q8.67,0,13.17-5.41T1032.41,83q0-9.52-2.24-14.77c-1.5-3.5-3.54-5.9-6.1-7.23a20.84,20.84,0,0,0-9.53-2Z" style="fill:#fff"/><path d="M1078.66,120.5H1061.1V46.32h17.56Z" style="fill:#fff"/><path d="M1144,86.67q4.66,4.06,4.66,12.2,0,11.89-8.51,16.76t-23.82,4.87h-23.87V46.32h21q15.63,0,23.88,4.44t8.24,14.5a14.51,14.51,0,0,1-3.91,10.55,19.59,19.59,0,0,1-9.69,5.4A24.89,24.89,0,0,1,1144,86.67Zm-34-27.94V76h6.53q11.13,0,11.13-9,0-4.5-3-6.37c-2-1.25-5.17-1.88-9.52-1.88Zm17,46.94q3.59-2.08,3.58-7.76,0-10.27-12.84-10.27H1110v20.12h6.42Q1123.4,107.76,1127,105.67Z" style="fill:#fff"/><path d="M1182.92,92.13h-6.86V120.5h-17.55V46.32h24.3q15.2,0,22.85,5.56t7.65,17a19.7,19.7,0,0,1-3.42,11.88q-3.44,4.73-10.81,8.14l18.84,31.58h-19.8ZM1176.06,80h7.39c3.92,0,6.87-.89,8.83-2.67s2.94-4.6,2.94-8.46c0-3.56-1-6.17-3.15-7.81s-5.34-2.46-9.69-2.46h-6.32Z" style="fill:#fff"/><path d="M1242.11,120.5h-17.56V46.32h17.56Z" style="fill:#fff"/><path d="M1294.29,46.85A33.4,33.4,0,0,1,1305.48,54l-8.14,9.53q-7.6-6.21-16.27-6.21a12.5,12.5,0,0,0-7.28,1.88,6.18,6.18,0,0,0-2.67,5.4,6.52,6.52,0,0,0,1.17,4,11.13,11.13,0,0,0,4.18,2.94,84.16,84.16,0,0,0,9,3.32q11.34,3.63,16.7,8.94t5.35,15a21.62,21.62,0,0,1-3.53,12.26,23.14,23.14,0,0,1-10.17,8.24,38.47,38.47,0,0,1-15.73,2.95,42.18,42.18,0,0,1-16.12-2.89,38.5,38.5,0,0,1-12-7.71l8.89-9.74a31.76,31.76,0,0,0,8.83,5.46,26.46,26.46,0,0,0,9.9,1.82q5.46,0,8.62-2.41a8,8,0,0,0,3.15-6.69,8.64,8.64,0,0,0-1.17-4.66,10.27,10.27,0,0,0-4.07-3.37,54.28,54.28,0,0,0-8.35-3.21q-12.32-3.75-17.5-9.21a19.23,19.23,0,0,1-5.19-13.8,19.17,19.17,0,0,1,3.42-11.3,22,22,0,0,1,9.53-7.49,34.63,34.63,0,0,1,13.81-2.62A40.52,40.52,0,0,1,1294.29,46.85Z" style="fill:#fff"/><path d="M1388.86,54.61q10,7.77,10,28.64,0,20.55-10,28.9t-24.35,8.35h-17.13V46.85h15.2Q1378.91,46.85,1388.86,54.61Zm-32.32-.27v58.77h8.67q10.49,0,17.07-6.47t6.58-23.39q0-11.9-3.37-18.25t-8.67-8.51a32.77,32.77,0,0,0-12.36-2.15Z" style="fill:#fff"/><path d="M1425.15,120.5h-9.21V46.85h9.21Z" style="fill:#fff"/><path d="M1486.91,52.47q7.39,5.63,7.39,17,0,12-7.71,17.82T1466,93.09h-9.63V120.5h-9.21V46.85H1466Q1479.53,46.85,1486.91,52.47Zm-7.22,29.65q4.75-3.59,4.76-12.58,0-8.13-4.76-11.77t-13.76-3.64h-9.52V85.71h9.31Q1474.92,85.71,1479.69,82.12Z" style="fill:#fff"/><path d="M1535.3,101.66h-28.69l-5.78,18.84h-9.42l23.87-73.65h11.77l23.77,73.65H1541Zm-2.36-7.6-12-39.5-12,39.5Z" style="fill:#fff"/><path d="M1584.11,88.81h-12.2V120.5h-9.21V46.85h19q13.59,0,20.6,5.25t7,15.41q0,7.71-4,12.52t-12,7.18l19.91,33.29h-11Zm-1.39-7.17q8.23,0,12.47-3.37c2.81-2.25,4.23-5.84,4.23-10.76,0-4.64-1.42-8-4.23-10.17s-7.37-3.21-13.65-3.21h-9.63V81.64Z" style="fill:#fff"/><path d="M1667.6,54.77h-20.66V120.5h-9.2V54.77h-21.2V46.85h52.13Z" style="fill:#fff"/><path d="M1690,120.5h-9.2V46.85h9.2Z" style="fill:#fff"/><path d="M1777.32,120.5h-9l-2.79-33.72q-1.82-20.23-2-30.51L1746.92,112h-8.67l-17.34-55.88q-.23,13.71-1.71,31.15l-2.57,33.19h-8.78l6.21-73.65h12.63l16.16,54.49,15.42-54.49h12.63Z" style="fill:#fff"/><path d="M1835,54.34h-29V79.18h25.15v7.49H1806V113h30.82v7.5h-40V46.85h39.29Z" style="fill:#fff"/><path d="M1904.38,120.5H1892l-31-63.48q1.29,14.13,1.29,27.94V120.5h-8.68V46.85h12.1l31.26,63.58c-.22-2.06-.47-5.33-.75-9.79s-.43-8.65-.43-12.58V46.85h8.67Z" style="fill:#fff"/><path d="M1968.07,54.77h-20.66V120.5h-9.2V54.77H1917V46.85h52.13Z" style="fill:#fff"/><path d="M2020.2,50A29.09,29.09,0,0,1,2031,63q3.85,8.57,3.86,20.77,0,12-3.86,20.55a29.07,29.07,0,0,1-10.81,13,31.8,31.8,0,0,1-32.33,0,28.7,28.7,0,0,1-10.81-12.9q-3.86-8.51-3.85-20.6,0-11.88,3.85-20.55a29.52,29.52,0,0,1,10.87-13.22A28.86,28.86,0,0,1,2004,45.57,29.4,29.4,0,0,1,2020.2,50Zm-31.58,10.76q-5.56,7.49-5.56,23.12,0,15.4,5.62,22.8t15.36,7.38q10.05,0,15.52-7.33t5.46-23q0-15.63-5.46-23.07T2004,53.27Q1994.19,53.27,1988.62,60.77Z" style="fill:#fff"/><path d="M1037,166.11q9.95,7.77,10,28.64,0,20.55-10,28.9T1012.61,232H995.48V158.35h15.2Q1027.06,158.35,1037,166.11Zm-32.33-.26v58.76h8.67q10.49,0,17.07-6.47t6.59-23.39q0-11.88-3.37-18.25T1025,168a32.78,32.78,0,0,0-12.36-2.14Z" style="fill:#fff"/><path d="M1073.3,232h-9.2V158.35h9.2Z" style="fill:#fff"/><path d="M1133.25,232H1124V158.35h9.21Z" style="fill:#fff"/><path d="M1206.14,232h-12.41l-31-63.48q1.29,14.13,1.29,27.94V232h-8.67V158.35h12.09l31.26,63.59c-.21-2.07-.47-5.34-.75-9.8s-.43-8.65-.43-12.57V158.35h8.67Z" style="fill:#fff"/><path d="M1265.66,165.85H1237.4v25.9h24.4v7.39h-24.4V232h-9.21V158.35h38.54Z" style="fill:#fff"/><path d="M1322.71,161.51a29,29,0,0,1,10.81,13q3.86,8.56,3.86,20.76,0,12-3.86,20.56a29,29,0,0,1-10.81,13,29.38,29.38,0,0,1-16.16,4.44,29.71,29.71,0,0,1-16.17-4.38,28.87,28.87,0,0,1-10.81-12.9q-3.85-8.52-3.85-20.61,0-11.88,3.85-20.55a29.52,29.52,0,0,1,10.87-13.22,28.94,28.94,0,0,1,16.11-4.55A29.38,29.38,0,0,1,1322.71,161.51Zm-31.58,10.76q-5.57,7.5-5.56,23.12,0,15.42,5.62,22.8t15.36,7.39q10.07,0,15.52-7.33t5.46-23q0-15.61-5.46-23.06t-15.52-7.44Q1296.7,164.78,1291.13,172.27Z" style="fill:#fff"/><path d="M1376,200.32h-12.2V232h-9.21V158.35h19q13.59,0,20.6,5.25t7,15.41q0,7.71-4,12.53t-12,7.17L1405,232h-11Zm-1.39-7.18q8.23,0,12.47-3.37t4.23-10.76q0-6.94-4.23-10.16t-13.65-3.22h-9.63v27.51Z" style="fill:#fff"/><path d="M1484.24,232h-9l-2.79-33.72q-1.82-20.24-2-30.51l-16.59,55.77h-8.67l-17.34-55.87q-.22,13.7-1.72,31.15L1423.54,232h-8.77l6.21-73.65h12.63l16.16,54.49,15.42-54.49h12.63Z" style="fill:#fff"/><path d="M1537.44,213.16h-28.69L1503,232h-9.42l23.87-73.65h11.78L1553,232h-9.85Zm-2.36-7.6-12-39.5-12,39.5Z" style="fill:#fff"/><path d="M1601.13,166.28h-20.66V232h-9.2V166.28h-21.2v-7.93h52.13Z" style="fill:#fff"/><path d="M1623.5,232h-9.2V158.35h9.2Z" style="fill:#fff"/><path d="M1682,158.78a35.54,35.54,0,0,1,9.15,5.46l-5,6a27.27,27.27,0,0,0-7-4.13,20.59,20.59,0,0,0-7.44-1.33,18.66,18.66,0,0,0-15.31,7.22q-5.77,7.23-5.78,23.18,0,15.3,5.78,22.74a18.31,18.31,0,0,0,15.2,7.44,20,20,0,0,0,8.35-1.6,37.31,37.31,0,0,0,7.39-4.61l4.71,6a27,27,0,0,1-8.72,5.83,29.91,29.91,0,0,1-12,2.3,28.58,28.58,0,0,1-15.79-4.44,29.55,29.55,0,0,1-10.81-13q-3.9-8.57-3.9-20.66t4-20.72a29.88,29.88,0,0,1,10.92-13,28.19,28.19,0,0,1,15.47-4.39A30.33,30.33,0,0,1,1682,158.78Z" style="fill:#fff"/><path d="M1739,213.16h-28.69L1704.53,232h-9.42L1719,158.35h11.77L1754.52,232h-9.84Zm-2.35-7.6-12-39.5-12,39.5Z" style="fill:#fff"/><path d="M1772.67,221.46a6.61,6.61,0,0,1,2,4.87,18,18,0,0,1-1.82,7.17l-7,15.95h-6.42l4.28-17.34a7.21,7.21,0,0,1-2.09-2.52,7,7,0,0,1-.8-3.26,6.68,6.68,0,0,1,2-4.82,6.54,6.54,0,0,1,4.87-2A6.75,6.75,0,0,1,1772.67,221.46Z" style="fill:#fff"/><path d="M1868.74,211.13q0,20.87-28.58,20.87h-20.23V158.35h17.12q13.71,0,21,4.61t7.33,13.91a15.21,15.21,0,0,1-3.91,10.76,17.72,17.72,0,0,1-9.79,5.41Q1868.73,195.82,1868.74,211.13Zm-39.61-45.39v24.09h12a16.84,16.84,0,0,0,10.65-3.22,10.85,10.85,0,0,0,4.12-9.1q0-6.52-4.44-9.15T1838,165.74Zm24.94,55.88q4.82-2.9,4.82-10.49,0-7.4-4.66-10.76T1842.08,197h-12.95v27.51h11Q1849.25,224.51,1854.07,221.62Z" style="fill:#fff"/><path d="M1894,232h-9.21V158.35H1894Z" style="fill:#fff"/><path d="M1958.22,161.51a29.09,29.09,0,0,1,10.82,13q3.84,8.56,3.85,20.76,0,12-3.85,20.56a29.06,29.06,0,0,1-10.82,13,29.38,29.38,0,0,1-16.16,4.44,29.68,29.68,0,0,1-16.16-4.38,28.75,28.75,0,0,1-10.81-12.9q-3.85-8.52-3.86-20.61,0-11.88,3.86-20.55A29.5,29.5,0,0,1,1926,161.62a28.94,28.94,0,0,1,16.11-4.55A29.38,29.38,0,0,1,1958.22,161.51Zm-31.57,10.76q-5.58,7.5-5.57,23.12,0,15.42,5.62,22.8t15.36,7.39q10.07,0,15.52-7.33t5.46-23q0-15.61-5.46-23.06t-15.52-7.44Q1932.21,164.78,1926.65,172.27Z" style="fill:#fff"/><path d="M1999.33,232h-9.21V158.35h9.21Z" style="fill:#fff"/><path d="M2072.22,232h-12.41l-31-63.48q1.29,14.13,1.29,27.94V232h-8.67V158.35h12.09l31.26,63.59c-.21-2.07-.47-5.34-.75-9.8s-.43-8.65-.43-12.57V158.35h8.67Z" style="fill:#fff"/><path d="M2132.81,159a35.82,35.82,0,0,1,10,6l-5.46,5.67a29.74,29.74,0,0,0-7.65-4.49,24.31,24.31,0,0,0-8.62-1.39,19.67,19.67,0,0,0-10.7,3.1q-4.92,3.1-8,9.9t-3.06,17.29q0,15.74,5.3,23.12t15.58,7.39a28.18,28.18,0,0,0,14.34-3.53V199h-13.38l-1.07-7.6h23.66v35.43a46.48,46.48,0,0,1-24.19,6.42q-14,0-22.06-9.74t-8-28.47q0-12,4.33-20.61a31.23,31.23,0,0,1,11.51-13,29.15,29.15,0,0,1,15.52-4.39A33.42,33.42,0,0,1,2132.81,159Z" style="fill:#fff"/><path d="M2199.71,165.85h-29v24.83h25.16v7.49H2170.7v26.34h30.83V232h-40V158.35h39.28Z" style="fill:#fff"/><path d="M2256.77,159a35.82,35.82,0,0,1,9.95,6l-5.46,5.67a29.74,29.74,0,0,0-7.65-4.49,24.35,24.35,0,0,0-8.62-1.39,19.67,19.67,0,0,0-10.7,3.1q-4.93,3.1-8,9.9t-3,17.29q0,15.74,5.3,23.12t15.57,7.39a28.19,28.19,0,0,0,14.35-3.53V199H2245.1l-1.07-7.6h23.65v35.43a46.48,46.48,0,0,1-24.19,6.42q-14,0-22-9.74t-8-28.47q0-12,4.34-20.61a31.21,31.21,0,0,1,11.5-13,29.21,29.21,0,0,1,15.53-4.39A33.46,33.46,0,0,1,2256.77,159Z" style="fill:#fff"/><path d="M2336.3,232h-12.42l-31-63.48q1.27,14.13,1.28,27.94V232h-8.67V158.35h12.1l31.25,63.59q-.32-3.1-.74-9.8t-.43-12.57V158.35h8.67Z" style="fill:#fff"/><path d="M2396.56,165.85h-29v24.83h25.16v7.49h-25.16v26.34h30.83V232h-40V158.35h39.28Z" style="fill:#fff"/><path d="M2436.49,200.32h-12.2V232h-9.21V158.35h19q13.59,0,20.6,5.25t7,15.41q0,7.71-4,12.53t-12,7.17L2465.5,232h-11Zm-1.39-7.18q8.24,0,12.47-3.37T2451.8,179q0-6.94-4.23-10.16t-13.65-3.22h-9.63v27.51Z" style="fill:#fff"/><path d="M2488.62,232h-9.2V158.35h9.2Z" style="fill:#fff"/><path d="M2544.39,213.16H2515.7L2509.92,232h-9.42l23.87-73.65h11.78L2559.91,232h-9.85Zm-2.35-7.6-12-39.5-12,39.5Z" style="fill:#fff"/><path d="M2578.05,221.46a6.58,6.58,0,0,1,2,4.87,18,18,0,0,1-1.82,7.17l-7,15.95h-6.43l4.29-17.34a7.11,7.11,0,0,1-2.09-2.52,6.92,6.92,0,0,1-.8-3.26,6.68,6.68,0,0,1,2-4.82,6.54,6.54,0,0,1,4.87-2A6.75,6.75,0,0,1,2578.05,221.46Z" style="fill:#fff"/><path d="M1016.89,311.82h-12.2V343.5h-9.21V269.86h18.95q13.59,0,20.61,5.24t7,15.42q0,7.71-4,12.52t-12,7.17l19.91,33.29h-11Zm-1.39-7.17q8.25,0,12.47-3.37t4.23-10.76q0-7-4.23-10.17t-13.65-3.21h-9.63v27.51Z" style="fill:#fff"/><path d="M1099.32,273a29,29,0,0,1,10.81,13q3.86,8.57,3.85,20.77,0,12-3.85,20.55a29.07,29.07,0,0,1-10.81,13,31.8,31.8,0,0,1-32.33,0,28.81,28.81,0,0,1-10.81-12.9q-3.86-8.5-3.85-20.61,0-11.88,3.85-20.55A29.62,29.62,0,0,1,1067,273.12a29,29,0,0,1,16.11-4.55A29.42,29.42,0,0,1,1099.32,273Zm-31.58,10.75q-5.57,7.5-5.57,23.12,0,15.42,5.62,22.81t15.36,7.38q10.06,0,15.52-7.33t5.46-23q0-15.63-5.46-23.07t-15.52-7.44Q1073.31,276.28,1067.74,283.77Z" style="fill:#fff"/><path d="M1178.42,322.63q0,20.88-28.58,20.87h-20.23V269.86h17.13q13.69,0,21,4.6t7.33,13.92a15.26,15.26,0,0,1-3.9,10.76,17.77,17.77,0,0,1-9.8,5.4Q1178.43,307.33,1178.42,322.63Zm-39.61-45.39v24.09h12q6.54,0,10.65-3.21a10.87,10.87,0,0,0,4.13-9.1q0-6.52-4.45-9.15t-13.43-2.63Zm25,55.88q4.82-2.89,4.81-10.49,0-7.38-4.65-10.76t-12.15-3.37h-13V336h11Q1158.93,336,1163.76,333.12Z" style="fill:#fff"/><path d="M1235,273a29.06,29.06,0,0,1,10.82,13q3.84,8.57,3.85,20.77,0,12-3.85,20.55a28.09,28.09,0,0,1-27,17.45,29.6,29.6,0,0,1-16.16-4.39,28.75,28.75,0,0,1-10.81-12.9q-3.86-8.5-3.86-20.61,0-11.88,3.86-20.55a29.55,29.55,0,0,1,10.86-13.22,28.94,28.94,0,0,1,16.11-4.55A29.38,29.38,0,0,1,1235,273Zm-31.57,10.75q-5.58,7.5-5.57,23.12,0,15.42,5.62,22.81t15.36,7.38q10.06,0,15.52-7.33t5.46-23q0-15.63-5.46-23.07t-15.52-7.44Q1209,276.28,1203.47,283.77Z" style="fill:#fff"/><path d="M1304.84,277.78h-20.66V343.5H1275V277.78h-21.19v-7.92h52.13Z" style="fill:#fff"/><path d="M1325.6,343.5h-9.2V269.86h9.2Z" style="fill:#fff"/><path d="M1382.5,270.29a35.26,35.26,0,0,1,9.15,5.46l-5,6a27.55,27.55,0,0,0-7-4.12,20.63,20.63,0,0,0-7.44-1.34,18.61,18.61,0,0,0-15.31,7.23q-5.79,7.22-5.78,23.17,0,15.31,5.78,22.75a18.32,18.32,0,0,0,15.2,7.44,20.06,20.06,0,0,0,8.35-1.61,37.46,37.46,0,0,0,7.38-4.6l4.71,6a26.88,26.88,0,0,1-8.72,5.84,30,30,0,0,1-12,2.3,28.53,28.53,0,0,1-15.79-4.44,29.52,29.52,0,0,1-10.81-13q-3.92-8.56-3.91-20.66t4-20.71a29.86,29.86,0,0,1,10.92-13,28.3,28.3,0,0,1,15.47-4.39A30.42,30.42,0,0,1,1382.5,270.29Z" style="fill:#fff"/><path d="M1437.89,324.66H1409.2l-5.78,18.84H1394l23.87-73.64h11.78l23.76,73.64h-9.85Zm-2.35-7.6-12-39.49-12,39.49Z" style="fill:#fff"/><path d="M1529,277.35h-29v24.84h25.16v7.49H1500V336h30.83v7.49h-40V269.86h39.28Z" style="fill:#fff"/><path d="M1582.18,343.5H1573V269.86h9.2Z" style="fill:#fff"/><path d="M1653.47,343.5h-12.41L1610,280q1.29,14.13,1.29,27.94V343.5h-8.67V269.86h12.09L1646,333.44q-.32-3.1-.75-9.79t-.43-12.58V269.86h8.67Z" style="fill:#fff"/><path d="M1712.46,270.5a36.06,36.06,0,0,1,10,6l-5.46,5.68a29.51,29.51,0,0,0-7.65-4.5,24.62,24.62,0,0,0-8.62-1.39,19.68,19.68,0,0,0-10.7,3.11q-4.93,3.11-8,9.9t-3,17.28q0,15.74,5.3,23.13t15.57,7.38a28.19,28.19,0,0,0,14.35-3.53v-23h-13.38l-1.07-7.6h23.65v35.44a46.48,46.48,0,0,1-24.19,6.42q-14,0-22-9.74t-8-28.48q0-12,4.34-20.6a31.18,31.18,0,0,1,11.5-13,29.27,29.27,0,0,1,15.53-4.39A33.68,33.68,0,0,1,1712.46,270.5Z" style="fill:#fff"/><path d="M1777.75,277.35h-29v24.84h25.16v7.49h-25.16V336h30.83v7.49h-40V269.86h39.28Z" style="fill:#fff"/><path d="M1833.2,270.5a36.06,36.06,0,0,1,10,6l-5.46,5.68a29.51,29.51,0,0,0-7.65-4.5,24.54,24.54,0,0,0-8.62-1.39,19.68,19.68,0,0,0-10.7,3.11q-4.92,3.11-8,9.9t-3.06,17.28q0,15.74,5.3,23.13t15.58,7.38a28.18,28.18,0,0,0,14.34-3.53v-23h-13.38l-1.07-7.6h23.66v35.44a46.48,46.48,0,0,1-24.19,6.42q-14,0-22.06-9.74t-8-28.48q0-12,4.33-20.6a31.2,31.2,0,0,1,11.51-13,29.23,29.23,0,0,1,15.52-4.39A33.64,33.64,0,0,1,1833.2,270.5Z" style="fill:#fff"/><path d="M1911.13,343.5h-12.42l-31-63.47q1.27,14.13,1.28,27.94V343.5h-8.67V269.86h12.1l31.25,63.58q-.32-3.1-.75-9.79t-.42-12.58V269.86h8.67Z" style="fill:#fff"/><path d="M1969.79,277.35h-29v24.84h25.15v7.49h-25.15V336h30.83v7.49h-40V269.86h39.29Z" style="fill:#fff"/><path d="M2008.11,311.82h-12.2V343.5h-9.21V269.86h19q13.59,0,20.6,5.24t7,15.42q0,7.71-4,12.52t-12,7.17l19.91,33.29h-11Zm-1.39-7.17q8.23,0,12.47-3.37c2.81-2.25,4.23-5.84,4.23-10.76,0-4.64-1.42-8-4.23-10.17s-7.37-3.21-13.65-3.21h-9.63v27.51Z" style="fill:#fff"/><path d="M2058.63,343.5h-9.2V269.86h9.2Z" style="fill:#fff"/><path d="M2112.79,324.66h-28.68l-5.78,18.84h-9.42l23.87-73.64h11.77l23.77,73.64h-9.85Zm-2.35-7.6-12-39.49-12,39.49Z" style="fill:#fff"/><path d="M2207.21,277.62q9.95,7.75,9.95,28.63,0,20.55-10,28.9t-24.35,8.35h-17.13V269.86h15.2Q2197.25,269.86,2207.21,277.62Zm-32.33-.27v58.77h8.67q10.48,0,17.07-6.48t6.59-23.39q0-11.88-3.38-18.25t-8.67-8.51a33,33,0,0,0-12.36-2.14Z" style="fill:#fff"/><path d="M2270.9,277.35h-29v24.84H2267v7.49h-25.15V336h30.83v7.49h-40V269.86H2272Z" style="fill:#fff"/><path d="M2297,343.5h-9.21V269.86H2297Z" style="fill:#fff"/><path d="M2374.78,270.66a33.2,33.2,0,0,1,9.9,6.37l-5,5.67a31.79,31.79,0,0,0-8.19-4.87,24,24,0,0,0-8.72-1.55,16.12,16.12,0,0,0-9.9,2.84,9.46,9.46,0,0,0-3.8,8.08,10.87,10.87,0,0,0,1.34,5.67,11.89,11.89,0,0,0,4.87,4.12,59.6,59.6,0,0,0,10.17,3.91,66.54,66.54,0,0,1,11.56,4.6,19.45,19.45,0,0,1,7.33,6.75,19.75,19.75,0,0,1,2.73,10.81,20.85,20.85,0,0,1-3.11,11.35,20.57,20.57,0,0,1-8.93,7.65,32.24,32.24,0,0,1-13.76,2.73q-15,0-24.73-9.42l5.25-5.89a34,34,0,0,0,9,5.67,26.56,26.56,0,0,0,10.38,1.93,18.43,18.43,0,0,0,11.67-3.58q4.6-3.58,4.6-10.12A13,13,0,0,0,2376,317a12.19,12.19,0,0,0-4.93-4.5,51.93,51.93,0,0,0-9.9-3.85q-11.34-3.44-16.48-8.19t-5.14-12.9a17.22,17.22,0,0,1,2.89-9.79,19.18,19.18,0,0,1,8.08-6.75,27.87,27.87,0,0,1,11.83-2.41A33.44,33.44,0,0,1,2374.78,270.66Z" style="fill:#fff"/><path d="M2410.37,343.5h-9.2V269.86h9.2Z" style="fill:#fff"/><path d="M2461.06,270.66A33.2,33.2,0,0,1,2471,277l-5,5.67a32.13,32.13,0,0,0-8.19-4.87,24.13,24.13,0,0,0-8.73-1.55,16.14,16.14,0,0,0-9.9,2.84,9.48,9.48,0,0,0-3.8,8.08,11,11,0,0,0,1.34,5.67,12,12,0,0,0,4.87,4.12,59.94,59.94,0,0,0,10.17,3.91,66.21,66.21,0,0,1,11.56,4.6,19.38,19.38,0,0,1,7.33,6.75,19.75,19.75,0,0,1,2.73,10.81,20.85,20.85,0,0,1-3.1,11.35,20.54,20.54,0,0,1-8.94,7.65,32.16,32.16,0,0,1-13.75,2.73q-15,0-24.73-9.42l5.24-5.89a34.24,34.24,0,0,0,9,5.67,26.49,26.49,0,0,0,10.38,1.93,18.43,18.43,0,0,0,11.67-3.58q4.59-3.58,4.6-10.12a12.87,12.87,0,0,0-1.45-6.42,12.15,12.15,0,0,0-4.92-4.5,52.2,52.2,0,0,0-9.9-3.85q-11.35-3.44-16.49-8.19t-5.13-12.9a17.22,17.22,0,0,1,2.89-9.79,19.06,19.06,0,0,1,8.08-6.75,27.87,27.87,0,0,1,11.83-2.41A33.48,33.48,0,0,1,2461.06,270.66Z" style="fill:#fff"/><path d="M2528,277.78h-20.66V343.5h-9.2V277.78H2477v-7.92h52.13Z" style="fill:#fff"/><path d="M2577.79,277.35h-29v24.84h25.15v7.49h-25.15V336h30.83v7.49h-40V269.86h39.29Z" style="fill:#fff"/><path d="M2660,343.5h-9l-2.78-33.71q-1.81-20.24-2-30.51l-16.59,55.77h-8.68l-17.34-55.88q-.21,13.71-1.71,31.15l-2.57,33.18h-8.78l6.21-73.64h12.63l16.17,54.48,15.41-54.48h12.63Z" style="fill:#fff"/><path d="M2687.08,343.5h-9.21V269.86h9.21Z" style="fill:#fff"/><path d="M302.11,88.65c0-2-.26-2.47-2.06-2.6l-8.12-.91v-8.3h34.41v8.3l-8.64,1c-1.93.26-2.06.52-2.06,2.47v49.82c0,23.35-13,33.86-35.31,33.86-24.62,0-34.67-11.42-34.67-34.25V88.65c0-2-.26-2.47-2.07-2.6l-8.12-.91v-8.3h36v8.3l-8.63,1c-1.94.26-2.06.52-2.06,2.47v47.22c0,16.48,5.67,23.88,20.36,23.88s21-6.1,21-23.49Z" style="fill:#fff"/><path d="M374,170.77V162.6l6.45-.78c1.8-.26,2.06-1,2.06-2.59v-30.1c0-7.79-.9-14.28-9.15-14.28-6.57,0-13.41,3.64-17.66,6.75V159c0,2.07.13,2.33,2.06,2.59l6.84.91v8.3h-32v-8.43l6.19-.78c1.8-.26,2.06-.65,2.06-2.59V117.19c0-1.43-.39-2.34-1.68-2.73L332.14,112l1.28-8.3H352.5l1,7.13.52.13c7.21-4.93,14.82-8.56,24.1-8.56,13.92,0,19.2,8.82,19.2,23.74V159c0,2.07.13,2.33,2.06,2.59l7.09.91v8.3Z" style="fill:#fff"/><path d="M412,170.77V162.6l7.74-1c1.8-.26,2.06-.65,2.06-2.59V117.19c0-1.43-.39-2.34-1.68-2.73L413.07,112l1.29-8.3h22.3V159c0,2.07.13,2.33,2.06,2.59l7.61.91v8.3ZM427.64,91c-6.19,0-9.67-3.5-9.67-9.73s3.48-9.47,9.67-9.47,9.67,3.37,9.67,9.47S433.7,91,427.64,91Z" style="fill:#fff"/><path d="M476,170.77,454.7,115.63c-.51-1.55-1.16-1.81-2.7-2.2l-5.42-1.17,1.68-8.56h30.42v8.56l-8.64,1,15.85,43.2h.52l16-43.2-8.5-1,1.41-8.56h26.55v8.56l-4.38.78c-1.67.26-2.58.52-3.22,2.2l-21.14,55.53Z" style="fill:#fff"/><path d="M580.88,166.23a53.7,53.7,0,0,1-24.74,6.1c-24,0-31.84-15.44-31.84-35.42,0-23.48,13.54-34.51,30.42-34.51,16.24,0,27.32,8.69,27.32,31.27,0,1.68-.13,5.06-.38,7.52H540c.64,12.07,5.28,19.2,17.78,19.2,6.32,0,11.22-1.29,19-4.54Zm-13.66-35.81c0-12.71-5.8-16.73-12.76-16.73-7.34,0-13.66,4.93-14.3,16.73Z" style="fill:#fff"/><path d="M591.06,170.77v-8.43l6.19-.78c1.81-.26,2.06-.65,2.06-2.59V117.19a2.46,2.46,0,0,0-1.67-2.73L590.55,112l1.29-8.3H611l1.42,9.47.39.13c4.25-5.58,10.31-10.9,18.94-10.9a47.49,47.49,0,0,1,10.06,1.17v21.27l-11.6-.51-1.55-8c-.13-1.17-.39-1.43-1.55-1.43-4.9,0-10.44,4.29-13,6.75v37.24c0,2.07.25,2.46,2.19,2.59l12.11,1v8.3Z" style="fill:#fff"/><path d="M687.21,123l-1.42-7.53a1.89,1.89,0,0,0-1.41-1.81,34.1,34.1,0,0,0-9.28-1.3c-8.25,0-12.25,3-12.25,8.17,0,6.88,7.22,8.44,15.34,10.38,10.18,2.47,21.65,5.58,21.65,20.37,0,15.31-12.63,21-27.32,21-11.09,0-21.91-3-24.23-4.54V150.14l10.7.65,1.28,7.92c.26,1,.39,1.42,1.55,1.81a37.54,37.54,0,0,0,11.6,1.82c8,0,12.89-2.34,12.89-9,0-7.27-8.25-8.44-16.88-10.38-9.8-2.21-20.11-5.32-20.11-19.07,0-15.7,13-21.54,26.94-21.54a65.09,65.09,0,0,1,21.65,3.76v17.52Z" style="fill:#fff"/><path d="M707.06,170.77V162.6l7.73-1c1.81-.26,2.06-.65,2.06-2.59V117.19c0-1.43-.38-2.34-1.67-2.73L708.09,112l1.29-8.3h22.3V159c0,2.07.12,2.33,2.06,2.59l7.6.91v8.3ZM722.65,91c-6.18,0-9.66-3.5-9.66-9.73s3.48-9.47,9.66-9.47,9.67,3.37,9.67,9.47S728.71,91,722.65,91Z" style="fill:#fff"/><path d="M794.7,167.79a47.09,47.09,0,0,1-19.08,4.54c-13.53,0-19.2-6-19.2-18.81V115.63c0-.78,0-1.3-1-1.3h-9.28v-9.21c10-1.29,14-8.17,15.72-19.59h9.41V102.4c0,.91,0,1.3,1,1.3H791v10.63H771.24v35.29c0,8,2.06,11,9.28,11a35.35,35.35,0,0,0,11.21-2.2Z" style="fill:#fff"/><path d="M844.19,170.77l-1.29-7.65-.38-.13c-5.68,5.45-12.64,9.34-22.69,9.34-16.24,0-18.43-11.16-18.43-18.42,0-13,8-19.21,23.72-20.5l16.36-1.3v-6.62c0-8.17-1.41-12.58-11.34-12.58-7.09,0-11.86.52-11.86,9.47l-13.92-1.3c0-16.61,15.08-18.68,26-18.68,18.69,0,25.65,5.32,25.65,23.22V159c0,2.07.13,2.33,2.06,2.59l6.32.91v8.3ZM837,97.6,814.16,78.91l8.89-8.69L842.9,92Zm4.51,44-12.24,1c-9.67.91-12.63,3.63-12.63,9.86s3,8.3,8.25,8.3c6.31,0,12.76-3.89,16.62-7.78Z" style="fill:#fff"/><path d="M286.43,287.23l-1.21-7.61-.81-.13c-5.92,5.67-12.65,9.29-22.87,9.29-15.47,0-25.69-9.55-25.69-33.66,0-25.66,12.64-35.85,28.25-35.85,8.07,0,14.79,2.19,19.9,5.8V203.15a2.3,2.3,0,0,0-1.74-2.58l-7.67-2.45,1.34-8.25h23.14v85.62c0,2.07.13,2.32,2.15,2.58l6.59.9v8.26Zm-2.83-49.91c-3.9-3.09-9.68-6.19-15.6-6.19-11.57,0-16.14,9.8-16.14,23.6,0,15.86,5,21.92,14,21.92,6.59,0,13-3.87,17.75-8.64Z" style="fill:#fff"/><path d="M314.27,287.23V279.1l8.07-1c1.88-.26,2.15-.64,2.15-2.58V234c0-1.42-.4-2.32-1.75-2.71l-7.39-2.45,1.34-8.25H340v54.93c0,2.07.14,2.32,2.15,2.58l7.94.9v8.26Zm16.28-79.31c-6.46,0-10.09-3.48-10.09-9.67s3.63-9.41,10.09-9.41,10.08,3.35,10.08,9.41S336.87,207.92,330.55,207.92Z" style="fill:#fff"/><path d="M472.82,253.05c-1.61.13-2.15.52-2.15,1.81v27.73c-10.22,4.64-23.67,6.19-34.84,6.19-36.72,0-49.36-20.77-49.36-48.49s16.54-48.1,50.44-48.1c9.68,0,22.19,2.32,30.4,7.48V224l-14.93-1-2-11.61c-.41-1.8-.94-2.32-2.15-2.58a52.18,52.18,0,0,0-12.38-1.67c-17.35,0-27.71,12.64-27.71,32.88,0,21.28,9.42,33.92,28.65,33.92a74.61,74.61,0,0,0,11.17-.91c1.48-.26,2.15-.64,2.15-2.32V253.83H435.16L437,242.22h41.3v10.32Z" style="fill:#fff"/><path d="M545.59,282.2c-8.34,3.87-17.48,6.58-27.57,6.58-26,0-34.84-15.48-34.84-35.6,0-23.34,14.93-34.43,33.36-34.43,17.75,0,29.59,8.9,29.59,31.21,0,1.55-.13,6.06-.27,8.64H504.7c.67,9.16,4.84,15.22,15.87,15.22,5.25,0,10.9-1.16,20-4.39Zm-19.37-35.85c-.13-10.83-4.57-13.67-10.09-13.67-5.78,0-10.49,3.1-11.29,13.67Z" style="fill:#fff"/><path d="M603.3,287.23V245.58c0-6.19-.41-11.35-7.13-11.35-5,0-11.17,2.71-14,4.77v34.56c0,2.06.13,2.32,2.15,2.58l6.46.9v10.19H553.66V276.91l6.06-.77c1.88-.26,2.15-.65,2.15-2.58V235.65c0-1.42-.4-2.32-1.75-2.71l-7.26-2.45L554.47,220H578l1.08,6.71.53.26c6.73-4.78,14.53-8.26,23.68-8.26,14.66,0,20.31,7.74,20.31,21.93v32.88c0,2.06.13,2.32,2.15,2.58l6.73.9v10.19Z" style="fill:#fff"/><path d="M637.73,254.09c0-21.41,11.71-35.34,36.32-35.34,24.89,0,34.57,14.19,34.57,33.92,0,21.92-11.57,36.11-36.32,36.11S637.73,274.33,637.73,254.09Zm49.64-.78c0-15.21-4.84-20.63-13.59-20.63S659,238,659,253.44s5.24,21.8,14.25,21.8C682,275.24,687.37,269.43,687.37,253.31Z" style="fill:#fff"/><path d="M739.83,287.23l-21.39-53.39c-.67-1.55-1.21-1.8-2.82-2.19L710,230.49,712.12,220h36.45v10.45l-8.61,1,13.72,36.75h1l14.25-36.75-8.74-1L761.89,220H793v10.45l-4.84.77c-1.75.39-2.69.65-3.36,2.19l-21.39,53.78Z" style="fill:#fff"/><path d="M839.23,287.23l-1.34-7-.67-.12c-5.12,4.77-11.84,8.64-22.6,8.64-17,0-19.64-11.09-19.64-19.09,0-12.9,8.34-18.83,25.15-19.86l15.47-1v-7.09c0-6.06-.67-10.19-9-10.19-6.46,0-9.82.9-9.82,8.64l-19-1.55c0-17.41,16.55-19.86,28.92-19.86,20.45,0,28.65,5.29,28.65,23.34v31.34c0,2.06.14,2.32,2.16,2.58l6.45,1v10.19ZM835.6,259.5l-9.15.65c-7.93.51-10.76,2.45-10.76,7.61s3.23,7.09,7.67,7.09,9.15-2.45,12.24-4.64Z" style="fill:#fff"/><rect x="1.62" y="77.5" width="168.69" height="54.44" style="fill:none"/><rect x="95.45" y="78.47" width="74.89" height="16.76" style="fill:#fff"/><polygon points="1.61 131.94 76.47 131.94 76.47 114.2 1.62 114.2 1.62 95.23 76.47 95.23 76.47 78.47 1.61 78.47 1.61 131.94" style="fill:#fff"/><polygon points="95.45 114.2 95.45 131.94 170.34 131.94 170.34 95.23 170.3 114.2 95.45 114.2" style="fill:#fff"/><rect x="76.47" y="77.5" width="18.98" height="0.97" style="fill:#e1e0e0"/><path d="M170.32,133.17l0-1.23H1.62l0,1.23,0,3.44v5.19l.06,6.53.14,7.44.27,7.9.41,8,.6,7.57.8,6.84,1,6.12L6,197.67l1.33,5,1.48,4.57,1.6,4.25,1.71,4,1.79,3.9,1.87,3.86,2,3.85L19.94,231l2.33,3.87,2.58,3.92,2.85,4,3.18,4,3.54,4.13,4,4.23,4.48,4.3,5.08,4.37,5.79,4.4,6.6,4.43,7.5,4.42,8.51,4.4L86,285.82l9.62-4.36,8.51-4.4,7.51-4.42,6.59-4.43,5.79-4.4,5.09-4.37,4.47-4.3,4-4.23,3.55-4.13,3.17-4,2.86-4,2.57-3.92L152,231l2.14-3.86,2-3.85,1.87-3.86,1.79-3.9,1.71-4,1.6-4.25,1.48-4.57,1.33-5,1.18-5.51,1-6.12.8-6.84.6-7.57.42-8,.26-7.9.14-7.44.06-6.53v-5.19ZM86,266.33a63.9,63.9,0,1,1,63.9-63.89A63.89,63.89,0,0,1,86,266.33Z" style="fill:none"/><path d="M85.57,287.77,75.48,283.2l-8.57-4.42-7.56-4.46-6.66-4.46-5.85-4.44L41.71,261l-4.53-4.35-4-4.27-3.58-4.17-3.21-4.08-2.88-4-2.6-4-2.36-3.92-2.16-3.89-2-3.89-3.69-7.81-1.72-4-1.62-4.29L5.86,203.7l-1.36-5-1.19-5.57-1-6.18L1.49,180l-.61-7.62-.41-8L.2,156.46l-.2-14L0,76.89l171.07-.27,0,60.64L171.07,149l-.14,7.45-.26,7.92-.42,8-.6,7.6-.81,6.88-1,6.18-1.19,5.56-1.35,5-1.49,4.63-1.62,4.31-1.73,4.07-3.69,7.82-2,3.87-2.15,3.89-2.35,3.91-2.6,4-2.88,4-3.2,4.09L138,252.32l-4,4.26-4.51,4.35-5.13,4.41-5.84,4.45-6.66,4.47-7.56,4.46-8.57,4.44ZM3.19,80.05l0,62.4.2,13.93.27,7.88L4,172.18l.59,7.51.8,6.77,1,6,1.16,5.41,1.31,4.89,1.45,4.48,1.57,4.16,1.68,3.95,3.62,7.67,2,3.81,2.11,3.8,2.29,3.82,2.53,3.85,2.81,3.9,3.12,4,3.49,4.07,3.91,4.15,4.4,4.24,5,4.29,5.7,4.33,6.5,4.36L68.44,276l8.42,4.35,8.71,3.94,8.8-4,8.42-4.36,7.41-4.36,6.5-4.37,5.69-4.34,5-4.29,4.39-4.23,3.9-4.15,3.48-4.06,3.12-4,2.81-3.9,2.52-3.85,2.29-3.81,2.1-3.8,2-3.79,3.62-7.69,1.68-4,1.57-4.17,1.45-4.48,1.31-4.9,1.15-5.41,1-6,.8-6.75.59-7.5.41-7.9.26-7.87.2-13.91v-5.18l0-57.47Z" style="fill:#fff"/><polygon points="93.17 199.4 100.07 201.26 97.89 208.84 96.99 208.75 95.61 208.75 94.87 208.79 94.41 208.81 94.06 208.76 93.78 208.7 93.49 208.62 93.31 208.58 93.09 208.55 92.79 208.61 92.58 208.93 92.58 209.26 92.66 209.5 92.77 209.68 92.88 209.81 93.07 209.99 93.31 210.17 93.97 210.56 93.98 210.56 93.89 210.59 93.37 210.65 92.72 210.69 91.95 210.73 91.26 210.79 90.52 210.93 89.74 210.72 93.17 199.4" style="fill:#fff"/><polygon points="89.67 212.04 89.72 211.87 89.81 211.71 89.95 211.55 90.12 211.43 90.51 211.3 91.06 211.19 91.42 211.15 91.98 211.11 92.74 211.07 93.4 211.03 93.97 210.96 94.22 210.9 94.37 210.84 94.41 210.81 94.5 210.72 94.53 210.65 94.54 210.56 94.49 210.46 94.37 210.36 94.17 210.23 93.52 209.85 93.31 209.7 93.15 209.55 93.08 209.46 93.01 209.34 92.97 209.21 92.97 209.04 93.02 208.95 93.1 208.94 93.24 208.96 93.4 208.99 93.69 209.07 93.99 209.13 94.39 209.19 94.89 209.18 95.63 209.13 96.97 209.13 97.31 209.17 97.64 209.22 97.98 213.08 97.7 213.31 97.34 213.55 97.04 213.71 96.46 213.97 95.99 214.18 95.53 214.36 94.89 214.58 94.28 214.76 93.5 214.94 92.92 215.03 92.27 215.06 91.61 215 90.9 214.78 90.42 214.47 90.12 214.12 89.84 213.57 89.73 213.21 89.65 212.72 89.64 212.27 89.67 212.04" style="fill:#fff"/><path d="M104.91,250l-.57-2.54-.68-3.28-.41-2.76-.42-6.82-.2-6.36-.1-5.21,0-3.38v-1.2l-.38.33-1,1.06-.84.77-1.09,1.09L98,209.21l.57-1.41L99.84,220l1.26-1.42,1.8-2.25,1-1.29,1.13-1.55.55-1.23.77-2.12.48-1.61.3-1.43,0-1.34-.33-2.82-.82-2.31-1.66-4-1.65-3.52-.36-.56-2.3-2.91-1.91-2.18a.84.84,0,0,0,.22-.3.81.81,0,0,0,0-.71l-.78-1.27-1.48-2-.48-.48-.28-.2s-.24-.12-.29-.13l-.83-.12-.1,0-.32-.31-.23-.4-.17-.46-.1-.52v-.45l0-.35,0-.37,0-.45,0-.36,0-1,0-.56-.14-1-.4-1.88-.41-1.88-.1-.56-1.41-.16-2-.16-2,0-.9,0-1.16.06-1.22.12-1.18.13-.35.83-.5,1.44-.22,1.26,0,1.21v.91l-.12,1.38-.34,1.6-.39,1.18-.49,1.13-.34.65-.62.82-1,.29-1.15.81L73,190.16a.77.77,0,0,0,.07,1,.24.24,0,0,0,.08.06l-.29.38-.41.65-.31.59-.45,1L71.26,195l-.75,2.13-.64,2L69,201.61l-.48.92L67.58,204l-1.1,1.55-.88,1.24-.77,1.17-.57,1-.49,1.16-.14.56,0,.47v.19l-.86-.16L62,211h-.27l-.28,0-.25.08-.33.25-.16.31-.06.44v0l-.48.17-.79.44-.7.58-.38.47-.23.41-.07.13-.06.35,0,.4.13.37.09.26.15.3.58.82.65.61.4.27.35.18.54.17.45,0,.32,0,1.64-.69,1.09-.29.86-.06.5,0,0,.17,0,.56.19.84.1.66.14.73.25.91.09.23.18.33.14.18.2.18.22.09.28,0,.22,0,.31-.1.22-.11.22-.16.17-.14.31-.31.42-.51.43-.65.47-.84.33-.67.82-1.93.63-1.72.7-2.25.34-3,.51-4.12.37-2.47.76-4.59.7.3L74.77,204l-.78,5.8-.65,6.18-.55,6.24-1,9.09-1,5.82L70.06,241l-.93,3.85-1.07,3.89-.61,2.94-.63,3.63-.4,2.59-.37,2.5,41.53.35-1.9-7.49ZM64.3,216.36l-.94.21-1.58.71-.41.08-.29,0-.4-.13-.25-.12-.64-.5-.6-.72-.37-.78,0-.32v-.1l.51-.75.59-.48.87-.45.88-.19-.09-.4-.05-.35,0-.13.29-.1,1.45.23.28,1,.7,1.74.42.89.25.67ZM82.85,175l.08-.47.1-.37.17-.37.12-.2.15-.19.14-.14.17-.14.15-.1.21-.11.23-.09.19-.05.44-.07h.38l.38,0,.67,0h1.23l.55,0,.51,0h.33l.37,0,.28.08.35.15.26.17.26.24.21.29.26.55.12.48.07.74,0,.81L91,177.32l-.76,2.62-.28.89-.16.82-.07.62v.51l.06.45.06.16-.72.2-3.38.3H83.67l.43-.7.07-.64v-.88l-.06-.36a.35.35,0,0,0,.1.19l.51.41.09,0,.68.32.83.13.59,0,.5-.1.46-.15,1.06-.54.59-.39a.4.4,0,0,0,.11-.55.39.39,0,0,0-.55-.11l-.56.38-.55.3-.38.17-.77.21-.48,0-.38,0-.23-.06-.44-.18-.57-.42a.38.38,0,0,0-.55,0,.37.37,0,0,0-.08.24l0-.27-.19-.69-.29-.79-.19-.61-.25-.93-.19-.9-.09-.71,0-.9Zm6.52,13.09-4.18.82-1.77,0-4.94-.14h-1.1l-1.55.15.51-.74,1.5-1.78.54-.43,4.7-.51h2.73l2.11-.11L90.2,185l1.3-.43,2.28-.7.36,0h.19l.18.06,1,1.26.81,1.22Z" style="fill:none"/><polygon points="80.24 169.47 80.72 170.01 81.26 170.34 81.98 170.54 82.01 170.95 82.06 171.18 82.12 171.34 82.2 171.43 82.35 171.48 82.88 171.38 84.07 171.29 85.6 171.15 87.2 171.16 88.88 171.16 89.92 171.25 91.22 171.4 92.22 171.51 92.43 171.46 92.53 171.27 92.61 170.96 92.64 170.74 92.65 170.56 92.69 170.52 93 170.47 93.39 170.34 93.79 170.1 94.11 169.82 94.43 169.4 94.64 168.93 94.75 168.29 94.71 167.83 94.58 167.38 94.28 166.84 93.92 166.47 93.28 166.09 92.87 165.97 92.16 165.93 91.58 165.83 91.16 165.68 90.75 165.5 90.15 165.12 89.42 164.45 89.38 164.33 89.11 163.92 88.81 163.61 88.36 163.31 87.72 163.1 87.22 163.07 86.51 163.21 86.21 163.35 85.74 163.69 85.62 163.81 85.27 164.32 84.95 164.73 84.53 165.08 84.02 165.42 83.46 165.69 82.77 165.89 82.03 165.94 81.59 166.01 81.08 166.21 80.69 166.49 80.29 166.92 80.05 167.36 79.9 167.94 79.93 168.72 80.24 169.47" style="fill:none"/><polygon points="94.5 183.88 94.33 183.82 94.26 183.82 94.14 183.82 93.78 183.84 91.5 184.54 90.2 184.97 87.92 185.36 85.81 185.47 83.08 185.47 78.38 185.97 77.84 186.4 76.34 188.18 75.83 188.92 77.38 188.77 78.48 188.77 83.42 188.91 85.19 188.89 89.37 188.07 96.37 186.36 95.56 185.13 94.5 183.88" style="fill:#fff"/><path d="M82.94,177l.19.9.25.93.19.61.29.79.19.69,0,.27a.37.37,0,0,1,.08-.24.38.38,0,0,1,.55,0l.57.42.44.18.23.06.38,0,.48,0,.77-.21.38-.17.55-.3.56-.38a.39.39,0,0,1,.55.11.4.4,0,0,1-.11.55l-.59.39-1.06.54-.46.15-.5.1-.59,0-.83-.13-.68-.32-.09,0-.51-.41a.35.35,0,0,1-.1-.19l.06.36v.88l-.07.64-.43.7h2.11l3.38-.3.72-.2-.06-.16-.06-.45v-.51l.07-.62.16-.82.28-.89.76-2.62.17-1.14,0-.81-.07-.74-.12-.48-.26-.55-.21-.29-.26-.24-.26-.17-.35-.15-.28-.08-.37,0h-.33l-.51,0-.55,0H86.43l-.67,0-.38,0H85l-.44.07-.19.05-.23.09-.21.11-.15.1-.17.14-.14.14-.15.19-.12.2-.17.37-.1.37-.08.47,0,.4,0,.9Z" style="fill:#fff"/><path d="M147.56,204.13a62,62,0,1,0-62,62A62,62,0,0,0,147.56,204.13ZM80.05,167.36l.24-.44.4-.43.39-.28.51-.2.44-.07.74-.05.69-.2.56-.27.51-.34.42-.35.32-.41.35-.51.12-.12.47-.34.3-.14.71-.14.5,0,.64.21.45.3.3.31.27.41,0,.12.73.67.6.38.4.18.43.15.58.1.71,0,.41.12.64.38.36.38.3.53.13.45,0,.46-.11.64-.21.47-.32.42-.32.29-.4.23-.39.13-.31.05,0,0v.18l0,.22-.08.31-.1.19-.21,0-1-.11-1.29-.15-1-.09H87.2l-1.6,0-1.53.15-1.19.09-.53.1-.15,0-.08-.09-.06-.16,0-.23,0-.41-.72-.2-.54-.33-.48-.54-.31-.75,0-.78Zm-14,93,.37-2.5.4-2.59.63-3.63.61-2.94,1.07-3.89.93-3.85.78-3.88,1-5.82,1-9.09.55-6.24.65-6.18.78-5.8.79-5.19-.7-.3-.76,4.59-.37,2.47-.51,4.12-.34,3-.7,2.25-.63,1.72-.82,1.93-.33.67-.47.84-.43.65-.42.51-.31.31-.17.14-.22.16-.22.11-.31.1-.22,0-.28,0-.22-.09-.2-.18-.14-.18-.18-.33-.09-.23-.25-.91-.14-.73-.1-.66-.19-.84,0-.56,0-.17-.5,0-.86.06-1.09.29-1.64.69-.32,0-.45,0-.54-.17-.35-.18-.4-.27-.65-.61-.58-.82-.15-.3-.09-.26-.13-.37,0-.4.06-.35.07-.13.23-.41.38-.47.7-.58.79-.44.48-.17v0l.06-.44.16-.31.33-.25.25-.08.28,0H62l.71.1.86.16v-.19l0-.47.14-.56.49-1.16.57-1,.77-1.17.88-1.24,1.1-1.55.93-1.43.48-.92.88-2.49.64-2,.75-2.13.45-1.12.45-1,.31-.59.41-.65.29-.38a.24.24,0,0,1-.08-.06.77.77,0,0,1-.07-1l3.73-4.9,1.15-.81,1-.29.62-.82.34-.65.49-1.13.39-1.18.34-1.6.12-1.38v-.91l0-1.21.22-1.26.5-1.44.35-.83,1.18-.13,1.22-.12,1.16-.06.9,0,2,0,2,.16,1.41.16.1.56.41,1.88.4,1.88.14,1,0,.56,0,1,0,.36,0,.45,0,.37,0,.35v.45l.1.52.17.46.23.4.32.31.1,0,.83.12s.24.11.29.13l.28.2.48.48,1.48,2,.78,1.27a.81.81,0,0,1,0,.71.84.84,0,0,1-.22.3l1.91,2.18,2.3,2.91.36.56,1.65,3.52,1.66,4,.82,2.31.33,2.82,0,1.34-.3,1.43-.48,1.61-.77,2.12-.55,1.23L103.94,215l-1,1.29-1.8,2.25L99.84,220,98.61,207.8,98,209.21l1.15,12.51,1.09-1.09.84-.77,1-1.06.38-.33v1.2l0,3.38.1,5.21.2,6.36.42,6.82.41,2.76.68,3.28.57,2.54.77,3.2,1.9,7.49Z" style="fill:#fff"/><polygon points="64.23 214.75 63.53 213.01 63.25 212.05 61.8 211.82 61.51 211.91 61.48 212.05 61.53 212.4 61.62 212.8 60.74 212.99 59.87 213.44 59.28 213.92 58.77 214.67 58.77 214.7 58.77 214.77 58.83 215.09 59.19 215.87 59.79 216.59 60.43 217.09 60.68 217.21 61.08 217.34 61.37 217.36 61.78 217.28 63.36 216.57 64.3 216.36 64.91 216.31 64.65 215.64 64.23 214.75" style="fill:#fff"/></svg>