<svg id="Livello_1" data-name="Livello 1" xmlns="http://www.w3.org/2000/svg" viewBox="0 0 2687.08 393.47"><title>dibris_extended_black</title><rect x="923.09" width="9.79" height="393.47"/><path d="M300,89.36c0-2-.26-2.47-2.06-2.6l-8.13-.91V77.54H324.3v8.31l-8.64,1c-1.94.26-2.07.52-2.07,2.47v49.88c0,23.38-13,33.91-35.36,33.91-24.64,0-34.71-11.43-34.71-34.3V89.36c0-2-.26-2.47-2.06-2.6l-8.13-.91V77.54h36v8.31l-8.65,1c-1.93.26-2.06.52-2.06,2.47v47.29c0,16.49,5.68,23.9,20.39,23.9s21-6.11,21-23.52Z"/><path d="M372.05,171.59V163.4l6.45-.78c1.8-.26,2.06-1,2.06-2.59V129.89c0-7.79-.9-14.29-9.16-14.29-6.58,0-13.42,3.64-17.68,6.76v37.41c0,2.08.13,2.34,2.07,2.59l6.84.91v8.32h-32v-8.45l6.2-.78c1.8-.25,2.06-.64,2.06-2.59V117.94c0-1.43-.39-2.34-1.68-2.73l-7.09-2.47,1.29-8.31h19.1l1,7.14.51.13c7.23-4.93,14.84-8.57,24.14-8.57,13.93,0,19.22,8.83,19.22,23.77v32.87c0,2.08.13,2.34,2.07,2.59l7.09.91v8.32Z"/><path d="M410.11,171.59V163.4l7.74-1c1.81-.25,2.07-.64,2.07-2.59V117.94c0-1.43-.39-2.34-1.68-2.73l-7.1-2.47,1.29-8.31h22.33v55.34c0,2.08.13,2.34,2.06,2.59l7.62.91v8.32ZM425.73,91.7c-6.2,0-9.68-3.51-9.68-9.74s3.48-9.49,9.68-9.49,9.67,3.38,9.67,9.49S431.79,91.7,425.73,91.7Z"/><path d="M474.12,171.59l-21.3-55.21c-.51-1.56-1.16-1.82-2.71-2.21L444.69,113l1.68-8.57h30.46V113l-8.65,1,15.87,43.26h.52l16-43.26-8.52-1,1.42-8.57h26.58V113l-4.38.78c-1.68.26-2.58.52-3.23,2.21l-21.16,55.6Z"/><path d="M579.16,167a53.77,53.77,0,0,1-24.78,6.11c-24,0-31.87-15.46-31.87-35.47,0-23.51,13.55-34.55,30.45-34.55,16.26,0,27.36,8.7,27.36,31.31,0,1.69-.13,5.06-.39,7.53H538.25c.64,12.08,5.29,19.23,17.81,19.23,6.32,0,11.22-1.3,19-4.55Zm-13.68-35.85c0-12.73-5.81-16.76-12.78-16.76-7.35,0-13.68,4.94-14.32,16.76Z"/><path d="M589.35,171.59v-8.45l6.19-.78c1.81-.25,2.07-.64,2.07-2.59V117.94a2.47,2.47,0,0,0-1.68-2.73l-7.1-2.47,1.29-8.31h19.23l1.42,9.48.39.13c4.26-5.58,10.32-10.91,19-10.91a47.57,47.57,0,0,1,10.06,1.17v21.3l-11.61-.52L627,117c-.13-1.17-.39-1.43-1.55-1.43-4.9,0-10.45,4.29-13,6.76v37.28c0,2.08.25,2.47,2.19,2.6l12.13,1v8.32Z"/><path d="M685.61,123.78l-1.42-7.53a1.9,1.9,0,0,0-1.42-1.82,34.06,34.06,0,0,0-9.29-1.3c-8.26,0-12.26,3-12.26,8.19,0,6.88,7.23,8.44,15.36,10.39,10.19,2.47,21.68,5.58,21.68,20.39,0,15.33-12.65,21.05-27.36,21.05-11.1,0-21.94-3-24.26-4.55V150.93l10.71.65,1.29,7.93c.26,1,.39,1.43,1.55,1.82a37.72,37.72,0,0,0,11.61,1.81c8,0,12.91-2.33,12.91-9,0-7.27-8.26-8.44-16.91-10.39-9.8-2.21-20.13-5.33-20.13-19.1,0-15.71,13-21.56,27-21.56a65.13,65.13,0,0,1,21.68,3.77v17.53Z"/><path d="M705.48,171.59V163.4l7.75-1c1.8-.25,2.06-.64,2.06-2.59V117.94c0-1.43-.39-2.34-1.68-2.73l-7.09-2.47,1.29-8.31h22.32v55.34c0,2.08.13,2.34,2.06,2.59l7.62.91v8.32ZM721.1,91.7c-6.2,0-9.68-3.51-9.68-9.74s3.48-9.49,9.68-9.49,9.68,3.38,9.68,9.49S727.16,91.7,721.1,91.7Z"/><path d="M793.23,168.6a47,47,0,0,1-19.1,4.55c-13.55,0-19.23-6-19.23-18.84V116.38c0-.78,0-1.3-1-1.3h-9.29v-9.22c10.07-1.3,14.07-8.18,15.74-19.62h9.42v16.89c0,.91,0,1.3,1,1.3h18.71v10.65H769.74v35.33c0,8.06,2.07,11.05,9.29,11.05a35.15,35.15,0,0,0,11.23-2.21Z"/><path d="M842.78,171.59l-1.29-7.67-.39-.13c-5.68,5.46-12.64,9.36-22.71,9.36-16.26,0-18.45-11.17-18.45-18.45,0-13,8-19.22,23.74-20.52l16.39-1.3v-6.63c0-8.18-1.42-12.6-11.36-12.6-7.09,0-11.87.52-11.87,9.49l-13.93-1.3c0-16.63,15.09-18.71,26.06-18.71,18.71,0,25.68,5.33,25.68,23.25v33.39c0,2.08.13,2.34,2.07,2.59l6.32.91v8.32Zm-7.23-73.27-22.84-18.7,8.91-8.7,19.87,21.82Zm4.52,44-12.26,1c-9.68.91-12.64,3.64-12.64,9.87s3,8.32,8.25,8.32c6.33,0,12.78-3.9,16.65-7.8Z"/><path d="M284.34,288.18l-1.21-7.61-.81-.13c-5.92,5.68-12.66,9.29-22.89,9.29-15.49,0-25.73-9.55-25.73-33.69,0-25.7,12.66-35.9,28.29-35.9,8.08,0,14.81,2.2,19.93,5.81V204a2.31,2.31,0,0,0-1.75-2.58L272.49,199l1.35-8.26H297v85.72c0,2.07.14,2.33,2.16,2.59l6.59.9v8.26Zm-2.83-50c-3.9-3.1-9.69-6.2-15.62-6.2-11.58,0-16.16,9.81-16.16,23.63,0,15.88,5,22,14,22,6.6,0,13.06-3.88,17.77-8.65Z"/><path d="M312.22,288.18v-8.13l8.08-1c1.89-.26,2.16-.65,2.16-2.59V234.86c0-1.42-.41-2.32-1.76-2.71l-7.4-2.45,1.34-8.27h23.3v55c0,2.07.14,2.33,2.16,2.59l7.94.9v8.26Zm16.3-79.4c-6.47,0-10.11-3.49-10.11-9.68s3.64-9.43,10.11-9.43,10.1,3.36,10.1,9.43S334.84,208.78,328.52,208.78Z"/><path d="M471.69,254c-1.62.13-2.16.52-2.16,1.81v27.76c-10.23,4.64-23.7,6.19-34.88,6.19-36.76,0-49.42-20.78-49.42-48.54S401.79,193,435.73,193c9.69,0,22.22,2.32,30.43,7.49v24.4l-14.94-1-2-11.62c-.41-1.81-.95-2.33-2.16-2.59A52.19,52.19,0,0,0,434.65,208c-17.37,0-27.74,12.65-27.74,32.92,0,21.3,9.43,34,28.68,34a74.64,74.64,0,0,0,11.18-.91c1.48-.26,2.16-.64,2.16-2.32V254.74H434l1.88-11.62h41.35v10.33Z"/><path d="M544.54,283.15c-8.35,3.87-17.5,6.58-27.6,6.58-26,0-34.88-15.49-34.88-35.63,0-23.37,14.95-34.47,33.4-34.47,17.77,0,29.62,8.91,29.62,31.24,0,1.55-.13,6.07-.27,8.65H503.6c.68,9.17,4.85,15.24,15.9,15.24,5.25,0,10.9-1.17,20.06-4.39Zm-19.39-35.89c-.13-10.85-4.58-13.69-10.1-13.69-5.79,0-10.5,3.1-11.31,13.69Z"/><path d="M602.32,288.18v-41.7c0-6.2-.4-11.36-7.14-11.36-5,0-11.18,2.71-14,4.78v34.6c0,2.06.13,2.32,2.15,2.58l6.47.9v10.2H552.63V277.85l6.06-.77c1.88-.26,2.15-.65,2.15-2.58v-38c0-1.42-.4-2.32-1.75-2.71l-7.27-2.45,1.61-10.46H577l1.08,6.71.54.26c6.73-4.78,14.54-8.26,23.7-8.26,14.68,0,20.34,7.74,20.34,21.94V274.5c0,2.06.13,2.32,2.15,2.58l6.73.9v10.2Z"/><path d="M636.8,255c0-21.43,11.71-35.37,36.36-35.37,24.91,0,34.61,14.2,34.61,34,0,21.95-11.58,36.15-36.36,36.15S636.8,275.27,636.8,255Zm49.69-.77c0-15.24-4.85-20.66-13.6-20.66s-14.81,5.29-14.81,20.79,5.25,21.82,14.27,21.82C681.1,276.18,686.49,270.37,686.49,254.23Z"/><path d="M739,288.18,717.6,234.73c-.67-1.55-1.21-1.81-2.82-2.19l-5.66-1.16,2.15-10.46h36.5v10.46l-8.62,1,13.74,36.79h.94l14.28-36.79-8.76-1,1.75-10.46h31.11v10.46l-4.85.77c-1.75.39-2.69.65-3.36,2.19l-21.42,53.84Z"/><path d="M838.54,288.18l-1.35-7-.67-.13c-5.12,4.78-11.85,8.65-22.62,8.65-17,0-19.67-11.1-19.67-19.11,0-12.91,8.35-18.85,25.19-19.88l15.48-1v-7.1c0-6.07-.67-10.2-9-10.2-6.46,0-9.83.9-9.83,8.65l-19-1.55c0-17.43,16.57-19.88,29-19.88,20.47,0,28.68,5.29,28.68,23.36v31.38c0,2.06.14,2.32,2.16,2.58l6.46,1v10.2Zm-3.64-27.76-9.15.65c-8,.52-10.78,2.45-10.78,7.62s3.24,7.1,7.68,7.1,9.16-2.45,12.25-4.65Z"/><g id="LWPOLYLINE"><path d="M85.29,184.84h-2a.27.27,0,0,1-.28-.28.28.28,0,0,1,.28-.28h2l2-.11,1.4-.19.46-.11a.28.28,0,0,1,.34.21.29.29,0,0,1-.22.34l-.48.11-1.44.2-.66.06Z"/></g><g id="LWPOLYLINE-2" data-name="LWPOLYLINE"><path d="M61,218.18l-.45-.05L60,218l-.34-.17-.4-.27-.65-.61-.58-.81-.15-.3-.21-.62,0-.41.06-.34.29-.54.38-.46.7-.59.78-.43.48-.17v0l.09-.54.34-.39.37-.15.28,0h.27l.7.1,1.16.22.15.74.21.64.67,1.67.43.9.68,1.81-.8-.07-.85.07-1.09.28-1.62.69Zm.14-6.18,0,.11,0,.34.1.41-1.1.28-.66.36L59,214l-.51.75v.1l.05.31.37.77.37.49.54.51.56.34.4.13.29,0,.41-.09,1.57-.7.93-.21.6,0-.25-.66-.42-.89-.7-1.73-.27-.94-1.44-.23Z"/></g><g id="LWPOLYLINE-3" data-name="LWPOLYLINE"><polygon points="94.02 183.04 93.57 183.02 93.11 183.11 92.61 183.18 91.92 183.33 91.36 183.49 90.73 183.73 90.34 183.9 90.06 184.03 89.87 184.1 89.72 184.1 89.6 184.05 89.48 183.93 89.4 183.78 89.31 183.48 89.25 183.03 89.25 182.53 89.31 181.91 89.47 181.1 89.75 180.21 90.5 177.61 90.67 176.48 90.7 175.67 90.63 174.94 90.51 174.46 90.26 173.91 90.04 173.62 89.79 173.39 89.53 173.22 89.19 173.07 88.9 172.99 88.54 172.94 88.2 172.93 87.7 172.97 87.15 173.02 86.75 173.03 86.34 173.04 85.93 173.04 85.27 173.02 84.89 172.99 84.51 173 84.07 173.07 83.88 173.12 83.65 173.21 83.45 173.31 83.29 173.41 83.13 173.55 82.99 173.69 82.84 173.89 82.72 174.08 82.55 174.45 82.45 174.81 82.37 175.28 82.34 175.68 82.37 176.57 82.47 177.28 82.65 178.18 82.9 179.1 83.09 179.7 83.37 180.49 83.57 181.18 83.69 181.93 83.68 182.81 83.62 183.44 83.14 184.21 82.75 184.51 82.32 184.51 81.85 184.49 81.33 184.5 80.87 184.52 79.94 184.56 79.43 184.63 78.7 184.77 77.89 185 78.4 184.49 79.09 183.59 79.43 182.94 79.92 181.82 80.3 180.65 80.64 179.06 80.77 177.68 80.76 176.79 80.79 175.58 81.01 174.33 81.51 172.9 81.86 172.07 83.02 171.94 84.24 171.83 85.39 171.76 86.29 171.75 88.27 171.77 90.31 171.93 91.71 172.08 91.8 172.64 92.21 174.51 92.61 176.38 92.75 177.34 92.8 177.9 92.82 178.87 92.79 179.23 92.74 179.67 92.7 180.04 92.68 180.39 92.69 180.83 92.78 181.36 92.96 181.81 93.19 182.21 93.55 182.57 94.02 183.04"/></g><g id="LWPOLYLINE-4" data-name="LWPOLYLINE"><path d="M83.3,184.83a.24.24,0,0,1-.22-.11.27.27,0,0,1,0-.39l.08-.06.49-.81.07-.66v-.9l-.12-.76-.2-.68L83,179.08l-.25-.92-.18-.88-.09-.7,0-.88,0-.39.08-.46.09-.35.28-.55.27-.32.31-.24.42-.19.18,0,.42-.07h.38l1.05,0,1.24,0,1-.08h.33l.62.11.33.15.25.15.24.22.21.27.25.53.12.47.07.72,0,.8-.17,1.13-1,3.51-.16.82-.06.63v.51l.06.47.11.32.1.18a.27.27,0,0,1-.11.38.29.29,0,0,1-.38-.11l-.13-.24-.13-.41-.08-.55v-.58l.07-.68.17-.88.29-.93.75-2.56L90,176.4l0-.73L90,175l-.1-.38-.2-.43-.14-.18-.35-.26-.45-.16-.55,0-2.28.11-1.06-.05h-.31l-.48.09-.41.2-.2.19-.18.27-.13.29-.08.28-.09.74,0,.82.08.66.18.84.42,1.47.28.78.22.74.13.84v1l-.07.75a.21.21,0,0,1,0,.12l-.55.91-.07.08-.12.09A.26.26,0,0,1,83.3,184.83Z"/></g><g id="LWPOLYLINE-5" data-name="LWPOLYLINE"><path d="M85.83,182.66l-.83-.13-.76-.36-.52-.4a.4.4,0,0,1,0-.56.38.38,0,0,1,.55,0l.56.42.44.18.23.06.38,0,.47,0,.78-.21.37-.16.55-.3.55-.38a.4.4,0,0,1,.55.11.39.39,0,0,1-.11.55l-.58.4-1.06.53-.45.15-.5.1Z"/></g><g id="LWPOLYLINE-6" data-name="LWPOLYLINE"><polygon points="81.5 170.87 80.79 170.68 80.25 170.35 79.78 169.81 79.47 169.07 79.44 168.29 79.59 167.71 79.83 167.27 80.22 166.84 80.61 166.57 81.12 166.37 81.56 166.3 82.29 166.26 82.98 166.05 83.53 165.78 84.05 165.45 84.46 165.1 84.78 164.7 85.13 164.19 85.24 164.07 85.72 163.73 86.01 163.59 86.71 163.45 87.22 163.48 87.85 163.69 88.29 163.99 88.6 164.3 88.86 164.71 88.9 164.82 89.63 165.49 90.23 165.86 90.63 166.05 91.05 166.19 91.62 166.29 92.33 166.34 92.74 166.45 93.38 166.83 93.73 167.2 94.03 167.73 94.16 168.18 94.2 168.64 94.09 169.27 93.88 169.74 93.57 170.16 93.24 170.44 92.84 170.67 92.46 170.8 92.15 170.86 92.11 170.89 92.1 171.07 92.08 171.29 91.99 171.6 91.89 171.78 91.69 171.83 90.69 171.73 89.4 171.58 88.37 171.49 86.7 171.49 85.11 171.47 83.59 171.62 82.4 171.71 81.87 171.81 81.73 171.76 81.65 171.67 81.59 171.51 81.54 171.28 81.5 170.87"/></g><polygon points="76.03 97.84 1.62 97.84 1.62 116.7 76.03 116.7 76.03 134.31 94.9 134.31 94.9 116.7 169.31 116.7 169.34 97.84 94.9 97.84 94.9 80.23 76.03 80.23 76.03 97.84"/><path d="M169.32,133.75v-1.23H1.62v1.23l0,3.41v5.16l.06,6.49.14,7.39.27,7.85.41,7.9.59,7.52.8,6.8,1,6.09L6,197.83l1.33,5,1.47,4.54,1.59,4.22,1.7,4,1.78,3.87,1.86,3.84,2,3.82,2.13,3.83,2.31,3.86,2.56,3.89,2.84,3.94,3.16,4,3.52,4.1,3.94,4.2,4.45,4.27,5.05,4.34,5.75,4.38L60,272.3l7.46,4.4,8.46,4.37,9.56,4.33L95,281.07l8.46-4.37,7.46-4.4,6.56-4.39,5.75-4.38,5-4.34,4.45-4.27,3.94-4.2,3.52-4.1,3.16-4,2.84-3.94,2.55-3.89,2.32-3.86,2.13-3.83,2-3.82,1.86-3.84,1.78-3.87,1.69-4,1.6-4.22,1.47-4.54,1.32-5,1.17-5.47,1-6.09.8-6.8.59-7.52.41-7.9.26-7.85.15-7.39.05-6.49v-5.16ZM85.46,266A63.48,63.48,0,1,1,149,202.56,63.49,63.49,0,0,1,85.46,266Z"/><path d="M85.07,287.35l-10-4.54-8.52-4.4L59,274l-6.61-4.43-5.82-4.42-5.11-4.38L37,256.44l-4-4.25-3.56-4.13L26.23,244l-2.87-4-2.59-3.93-2.34-3.89-2.15-3.87-2-3.86-3.67-7.76-1.71-4-1.61-4.26-1.49-4.59-1.35-5-1.18-5.53-1-6.15-.81-6.85-.6-7.57-.41-7.93L.2,156.89,0,143v-5.17L.25,77.59l169.86,0,0,65.41-.2,13.89-.26,7.87-.41,7.92-.6,7.55-.8,6.84-1,6.14-1.18,5.53-1.34,5-1.49,4.6-1.61,4.28-1.71,4.05-3.67,7.77-2,3.84-2.14,3.87L149.41,236,146.83,240l-2.86,4L140.78,248l-3.56,4.14-4,4.23-4.49,4.32-5.1,4.39-5.81,4.42-6.61,4.44-7.52,4.43-8.52,4.41ZM3.4,80.75,3.17,143l.2,13.83.26,7.83L4,172.5,4.63,180l.79,6.73,1,6,1.15,5.37,1.31,4.86,1.44,4.44,1.56,4.14,1.67,3.92,3.6,7.62,1.95,3.78,2.09,3.78,2.28,3.8L26,238.22l2.79,3.88,3.11,4,3.46,4,3.89,4.13,4.37,4.21,5,4.26,5.67,4.3,6.46,4.33,7.36,4.33L76.42,280l8.65,3.92,8.75-4,8.37-4.33,7.36-4.34,6.46-4.34,5.66-4.3,5-4.27,4.37-4.2,3.87-4.13,3.46-4,3.1-3.95,2.79-3.88,2.51-3.82,2.28-3.79,2.08-3.77L153,223l3.6-7.63,1.67-4,1.56-4.14,1.44-4.45,1.3-4.87,1.15-5.37,1-6,.79-6.71.59-7.44.41-7.85.26-7.82L167,143l0-62.23Z"/><g id="LWPOLYLINE-7" data-name="LWPOLYLINE"><path d="M73.22,191.63a.76.76,0,0,1-.56-.23.78.78,0,0,1-.06-1L76.88,185l1.21-.55,1.72-.28.68,0,2.1,0h2.7l3.35-.3,5-1.35.82.13a1.51,1.51,0,0,1,.29.13l.28.2.49.47,2.24,3.29a.79.79,0,0,1-.49,1.17l-8,2-4.34.84-1.93,0L78,190.56l-2.38.13L74.4,191l-.69.47A.82.82,0,0,1,73.22,191.63Zm9.37-5.92-4.66.5-.53.43-1.49,1.76-.51.72,1.54-.14H78l4.91.14,1.76,0,4.15-.82,7-1.69-.8-1.21-1-1.25-.36-.06-1,.14-4.4,1.3-1.46.15-1.4.05Z"/></g><path d="M73.57,209.83,72.91,216l-.54,6.21-1,9L70.43,237l-.77,3.85-.93,3.83-1.06,3.86-.61,2.92-.62,3.61L66,257.62l-.35,2.48,41.27.35L105.06,253l-.76-3.18-.57-2.53-.67-3.26-.41-2.74-.42-6.77-.19-6.32-.11-5.18,0-3.36,0-1.19-.37.33-1,1.05-.84.77-1.07,1.08-1.15-12.43.57-1.4L99.26,220l1.25-1.41,1.79-2.24,1-1.28,1.12-1.54.55-1.22.76-2.1.48-1.6.29-1.42,0-1.34-.32-2.8-.81-2.29-1.65-3.93-1.65-3.5-.36-.56-2.28-2.89-2.35-2.68-.46.12L89,189.19l-3,.64-1.38.23-1.76.05-2.7-.15-1.9-.08H76.91l-1.45.14-.79.18-.65.24-.39.21-.47.35-.34.35-.36.47-.41.65-.31.58-.44,1-.45,1.11-.74,2.12-.64,2-.88,2.48-.47.91-.93,1.43-1.09,1.53-.88,1.24L64.46,208l-.56,1-.49,1.15-.14.56,0,.47,0,.25,0,.23.06.28.11.38.18.55.25.62.15.35.22.5.31.66.33.71.27.65.14.39.13.57,0,.55.19.84.1.66.14.72.25.91.09.22.17.33.15.18.2.18L67,222l.28,0,.22,0,.31-.1.21-.11.23-.16.16-.14.32-.31.41-.51.43-.64.46-.83.33-.67.82-1.92.62-1.71.7-2.23.33-2.95.52-4.1.36-2.45.75-4.56.7.29-.79,5.17Zm19.06-10.29,6.86,1.86-2.17,7.52-.89-.09H95.06l-.74,0h-.46l-.35,0-.27-.06L93,208.7l-.18,0-.22,0-.3.05-.2.32v.33l.07.24.11.18.11.13.19.18.24.17.66.39h0l-.09,0-.52.06-.65,0-.76,0-.69.07L90,211l-.78-.2Zm-3.48,12.57.06-.17.08-.17.14-.15.17-.12.39-.14.54-.1.36,0,.56,0,.75,0,.66,0,.56-.07.25-.06.15-.07,0,0,.09-.09,0-.07v-.09l0-.1-.12-.1-.2-.13-.64-.37-.21-.16-.16-.14-.07-.09-.07-.12,0-.14v-.16l0-.09h.08l.14,0,.15,0,.3.08.29.06.4.06h.5l.73,0h1.34l.33,0,.33.05.35,3.83-.29.23-.35.24-.3.16-.58.26-.47.2-.46.19-.63.22-.6.18L93,215l-.58.09-.65,0-.65-.06-.7-.21-.48-.32-.3-.34-.28-.55-.11-.36-.08-.48v-.45Z"/><path d="M1039.43,54.08q10.42,7.86,10.43,28.85,0,20.55-10.22,28.95t-26.17,8.4h-21.2V46.21h19.38Q1029,46.21,1039.43,54.08ZM1008,57.77v50.95h6.42q9.11,0,14.08-5.62t5-20.17q0-10.07-2.52-15.63t-6.69-7.55a23.59,23.59,0,0,0-10.17-2Z"/><path d="M1077.59,120.28h-15.74V46.21h15.74Z"/><path d="M1143.36,86.51q4.67,4,4.66,12.26,0,11.67-8.35,16.59t-23.23,4.92h-23.12V46.21h20.23q15.2,0,23.23,4.5t8,14.45a14.46,14.46,0,0,1-3.91,10.54,19.56,19.56,0,0,1-9.69,5.41A25.22,25.22,0,0,1,1143.36,86.51Zm-34.3-28.95V76.29h7.7q5.79,0,8.89-2.41t3.1-7.33c0-3.28-1.1-5.6-3.32-7s-5.67-2-10.38-2Zm18.73,48.86q3.86-2.19,3.85-8.29,0-11.14-13.7-11.14h-8.88v21.63h7.49Q1123.93,108.62,1127.79,106.42Z"/><path d="M1182.92,91.27h-8v29h-15.74V46.21h23.12q14.88,0,22.38,5.51t7.49,16.65q0,7.38-3.53,12.09t-11,7.92l19.05,31.9h-17.87Zm-8-11.13h8.24q6.31,0,9.53-2.83c2.14-1.89,3.21-4.88,3.21-8.94,0-3.78-1.13-6.55-3.37-8.3s-5.77-2.62-10.55-2.62h-7.06Z"/><path d="M1240.61,120.28h-15.73V46.21h15.73Z"/><path d="M1292.9,46.8a33.83,33.83,0,0,1,11,7l-7.49,8.67a29,29,0,0,0-7.92-4.71,23.68,23.68,0,0,0-8.46-1.5,13.33,13.33,0,0,0-7.86,2.09,6.83,6.83,0,0,0-3,5.94,7.35,7.35,0,0,0,1.23,4.39,11.33,11.33,0,0,0,4.34,3.21,72.31,72.31,0,0,0,9.31,3.43q11,3.53,16.49,8.72T1306,98.87a21.4,21.4,0,0,1-3.42,12,22.73,22.73,0,0,1-10,8.13,37,37,0,0,1-15.3,3,41.1,41.1,0,0,1-15.63-2.79,36,36,0,0,1-11.78-7.6l8.14-8.88a31.24,31.24,0,0,0,8.78,5.51,26.38,26.38,0,0,0,10.06,1.87q5.77,0,9.26-2.67a8.9,8.9,0,0,0,3.48-7.49,9.28,9.28,0,0,0-1.23-5,11,11,0,0,0-4.23-3.59,50.29,50.29,0,0,0-8.67-3.32q-12.1-3.74-17.29-9T1253,65.37a18.65,18.65,0,0,1,3.32-11,21.22,21.22,0,0,1,9.2-7.33,33.06,33.06,0,0,1,13.38-2.57A38.44,38.44,0,0,1,1292.9,46.8Z"/><path d="M1387.69,54.4q9.94,7.76,10,28.63,0,20.55-10,28.9t-24.35,8.35h-17.13V46.64h15.2Q1377.73,46.64,1387.69,54.4Zm-32.33-.27V112.9H1364q10.48,0,17.07-6.48T1387.69,83q0-11.88-3.38-18.25t-8.67-8.51a33,33,0,0,0-12.36-2.14Z"/><path d="M1424,120.28h-9.2V46.64h9.2Z"/><path d="M1485.74,52.26q7.38,5.61,7.38,17,0,12-7.7,17.83t-20.56,5.83h-9.63v27.4H1446V46.64h18.84Q1478.34,46.64,1485.74,52.26Zm-7.23,29.65q4.77-3.59,4.76-12.58,0-8.13-4.76-11.77t-13.75-3.64h-9.53V85.49h9.31Q1473.75,85.49,1478.51,81.91Z"/><path d="M1534.12,101.44h-28.69l-5.78,18.84h-9.42l23.87-73.64h11.78l23.76,73.64h-9.85Zm-2.35-7.6-12-39.49-12,39.49Z"/><path d="M1582.93,88.6h-12.2v31.68h-9.21V46.64h19q13.59,0,20.61,5.24t7,15.42q0,7.7-4,12.52T1592,87l19.91,33.29h-11Zm-1.39-7.17q8.25,0,12.47-3.38t4.23-10.75q0-7-4.23-10.17t-13.65-3.21h-9.63V81.43Z"/><path d="M1666.43,54.56h-20.66v65.72h-9.21V54.56h-21.19V46.64h52.13Z"/><path d="M1688.8,120.28h-9.21V46.64h9.21Z"/><path d="M1776.14,120.28h-9l-2.78-33.72q-1.81-20.22-2-30.5l-16.6,55.77h-8.67L1719.73,56q-.21,13.71-1.71,31.15l-2.57,33.18h-8.78l6.21-73.64h12.63l16.17,54.48,15.41-54.48h12.63Z"/><path d="M1833.84,54.13h-29V79H1830v7.49h-25.16v26.33h30.83v7.49h-40V46.64h39.28Z"/><path d="M1903.2,120.28h-12.41l-31-63.47Q1861,70.94,1861,84.75v35.53h-8.67V46.64h12.09l31.26,63.58q-.32-3.1-.75-9.79t-.43-12.58V46.64h8.67Z"/><path d="M1966.89,54.56h-20.65v65.72H1937V54.56h-21.2V46.64H1968Z"/><path d="M2019,49.8a29.06,29.06,0,0,1,10.82,13q3.86,8.57,3.85,20.77,0,12-3.85,20.55a28.09,28.09,0,0,1-27,17.45,29.6,29.6,0,0,1-16.16-4.39,28.81,28.81,0,0,1-10.81-12.9q-3.86-8.5-3.86-20.61,0-11.88,3.86-20.55a29.62,29.62,0,0,1,10.86-13.22,28.94,28.94,0,0,1,16.11-4.55A29.38,29.38,0,0,1,2019,49.8Zm-31.57,10.75q-5.57,7.5-5.57,23.12,0,15.42,5.62,22.8t15.36,7.39q10.07,0,15.52-7.33t5.46-23q0-15.63-5.46-23.07t-15.52-7.44Q1993,53.06,1987.45,60.55Z"/><path d="M1037,165.9q9.95,7.77,10,28.64,0,20.55-10,28.9t-24.35,8.35H995.48V158.14h15.2Q1027.06,158.14,1037,165.9Zm-32.33-.27V224.4h8.67q10.49,0,17.07-6.48t6.59-23.38q0-11.89-3.37-18.26t-8.68-8.51a33,33,0,0,0-12.36-2.14Z"/><path d="M1073.3,231.79h-9.2V158.14h9.2Z"/><path d="M1133.25,231.79H1124V158.14h9.21Z"/><path d="M1206.14,231.79h-12.41l-31-63.48q1.29,14.13,1.29,27.94v35.54h-8.67V158.14h12.09l31.26,63.58c-.21-2.06-.47-5.33-.75-9.79s-.43-8.65-.43-12.58V158.14h8.67Z"/><path d="M1265.66,165.63H1237.4v25.91h24.4v7.38h-24.4v32.87h-9.21V158.14h38.54Z"/><path d="M1322.71,161.3a29,29,0,0,1,10.81,13q3.86,8.56,3.86,20.77,0,12-3.86,20.55a29,29,0,0,1-10.81,13,31.8,31.8,0,0,1-32.33.05,28.77,28.77,0,0,1-10.81-12.9q-3.85-8.5-3.85-20.6,0-11.88,3.85-20.55a29.52,29.52,0,0,1,10.87-13.22,28.86,28.86,0,0,1,16.11-4.55A29.38,29.38,0,0,1,1322.71,161.3Zm-31.58,10.76q-5.57,7.49-5.56,23.12,0,15.4,5.62,22.8t15.36,7.38q10.07,0,15.52-7.33t5.46-23q0-15.63-5.46-23.07t-15.52-7.44Q1296.7,164.56,1291.13,172.06Z"/><path d="M1376,200.1h-12.2v31.69h-9.21V158.14h19q13.59,0,20.6,5.25t7,15.41q0,7.71-4,12.52t-12,7.18L1405,231.79h-11Zm-1.39-7.17q8.23,0,12.47-3.37t4.23-10.76q0-7-4.23-10.17t-13.65-3.21h-9.63v27.51Z"/><path d="M1484.24,231.79h-9l-2.79-33.72q-1.82-20.23-2-30.51l-16.59,55.77h-8.67l-17.34-55.88q-.22,13.71-1.72,31.15l-2.57,33.19h-8.77l6.21-73.65h12.63l16.16,54.49,15.42-54.49h12.63Z"/><path d="M1537.44,213h-28.69L1503,231.79h-9.42l23.87-73.65h11.78L1553,231.79h-9.85Zm-2.36-7.6-12-39.5-12,39.5Z"/><path d="M1601.13,166.06h-20.66v65.73h-9.2V166.06h-21.2v-7.92h52.13Z"/><path d="M1623.5,231.79h-9.2V158.14h9.2Z"/><path d="M1682,158.57a35.26,35.26,0,0,1,9.15,5.46l-5,6a27.22,27.22,0,0,0-7-4.12,20.6,20.6,0,0,0-7.44-1.34,18.64,18.64,0,0,0-15.31,7.23q-5.77,7.23-5.78,23.17,0,15.31,5.78,22.75a18.33,18.33,0,0,0,15.2,7.44,20,20,0,0,0,8.35-1.61,37.23,37.23,0,0,0,7.39-4.6l4.71,6a27,27,0,0,1-8.72,5.83,30.08,30.08,0,0,1-12,2.3,28.58,28.58,0,0,1-15.79-4.44,29.58,29.58,0,0,1-10.81-13q-3.9-8.56-3.9-20.66t4-20.71a29.91,29.91,0,0,1,10.92-13,28.27,28.27,0,0,1,15.47-4.38A30.33,30.33,0,0,1,1682,158.57Z"/><path d="M1739,213h-28.69l-5.78,18.84h-9.42L1719,158.14h11.77l23.76,73.65h-9.84Zm-2.35-7.6-12-39.5-12,39.5Z"/><path d="M1772.67,221.24a6.63,6.63,0,0,1,2,4.87,18.08,18.08,0,0,1-1.82,7.18l-7,15.94h-6.42l4.28-17.34a7.27,7.27,0,0,1-2.09-2.51,7.08,7.08,0,0,1-.8-3.27,6.66,6.66,0,0,1,2-4.81,6.52,6.52,0,0,1,4.87-2A6.75,6.75,0,0,1,1772.67,221.24Z"/><path d="M1868.74,210.91q0,20.88-28.58,20.88h-20.23V158.14h17.12q13.71,0,21,4.6t7.33,13.92a15.22,15.22,0,0,1-3.91,10.76,17.64,17.64,0,0,1-9.79,5.4Q1868.73,195.61,1868.74,210.91Zm-39.61-45.38v24.08h12q6.53,0,10.65-3.21a10.85,10.85,0,0,0,4.12-9.1q0-6.53-4.44-9.15T1838,165.53Zm24.94,55.87q4.82-2.88,4.82-10.49,0-7.38-4.66-10.76t-12.15-3.37h-12.95v27.51h11Q1849.25,224.29,1854.07,221.4Z"/><path d="M1894,231.79h-9.21V158.14H1894Z"/><path d="M1958.22,161.3a29.11,29.11,0,0,1,10.82,13q3.84,8.56,3.85,20.77,0,12-3.85,20.55a28.09,28.09,0,0,1-27,17.45,29.6,29.6,0,0,1-16.16-4.39,28.64,28.64,0,0,1-10.81-12.9q-3.85-8.5-3.86-20.6,0-11.88,3.86-20.55A29.5,29.5,0,0,1,1926,161.41a28.86,28.86,0,0,1,16.11-4.55A29.38,29.38,0,0,1,1958.22,161.3Zm-31.57,10.76q-5.58,7.49-5.57,23.12,0,15.4,5.62,22.8t15.36,7.38q10.07,0,15.52-7.33t5.46-23q0-15.63-5.46-23.07t-15.52-7.44Q1932.21,164.56,1926.65,172.06Z"/><path d="M1999.33,231.79h-9.21V158.14h9.21Z"/><path d="M2072.22,231.79h-12.41l-31-63.48q1.29,14.13,1.29,27.94v35.54h-8.67V158.14h12.09l31.26,63.58c-.21-2.06-.47-5.33-.75-9.79s-.43-8.65-.43-12.58V158.14h8.67Z"/><path d="M2132.81,158.78a36.11,36.11,0,0,1,10,6l-5.46,5.67a29.51,29.51,0,0,0-7.65-4.5,24.54,24.54,0,0,0-8.62-1.39,19.68,19.68,0,0,0-10.7,3.11q-4.92,3.11-8,9.9t-3.06,17.29q0,15.73,5.3,23.12t15.58,7.38a28.08,28.08,0,0,0,14.34-3.53v-23h-13.38l-1.07-7.6h23.66v35.43a46.48,46.48,0,0,1-24.19,6.42q-14,0-22.06-9.74t-8-28.47q0-12,4.33-20.61a31.26,31.26,0,0,1,11.51-13,29.23,29.23,0,0,1,15.52-4.38A33.65,33.65,0,0,1,2132.81,158.78Z"/><path d="M2199.71,165.63h-29v24.84h25.16V198H2170.7v26.33h30.83v7.5h-40V158.14h39.28Z"/><path d="M2256.77,158.78a36.11,36.11,0,0,1,9.95,6l-5.46,5.67a29.51,29.51,0,0,0-7.65-4.5,24.58,24.58,0,0,0-8.62-1.39,19.68,19.68,0,0,0-10.7,3.11q-4.93,3.11-8,9.9t-3,17.29q0,15.73,5.3,23.12t15.57,7.38a28.09,28.09,0,0,0,14.35-3.53v-23H2245.1l-1.07-7.6h23.65v35.43a46.48,46.48,0,0,1-24.19,6.42q-14,0-22-9.74t-8-28.47q0-12,4.34-20.61a31.24,31.24,0,0,1,11.5-13,29.28,29.28,0,0,1,15.53-4.38A33.69,33.69,0,0,1,2256.77,158.78Z"/><path d="M2336.3,231.79h-12.42l-31-63.48q1.27,14.13,1.28,27.94v35.54h-8.67V158.14h12.1l31.25,63.58c-.21-2.06-.46-5.33-.74-9.79s-.43-8.65-.43-12.58V158.14h8.67Z"/><path d="M2396.56,165.63h-29v24.84h25.16V198h-25.16v26.33h30.83v7.5h-40V158.14h39.28Z"/><path d="M2436.49,200.1h-12.2v31.69h-9.21V158.14h19q13.59,0,20.6,5.25t7,15.41q0,7.71-4,12.52t-12,7.18l19.91,33.29h-11Zm-1.39-7.17q8.24,0,12.47-3.37t4.23-10.76q0-7-4.23-10.17t-13.65-3.21h-9.63v27.51Z"/><path d="M2488.62,231.79h-9.2V158.14h9.2Z"/><path d="M2544.39,213H2515.7l-5.78,18.84h-9.42l23.87-73.65h11.78l23.76,73.65h-9.85Zm-2.35-7.6-12-39.5-12,39.5Z"/><path d="M2578.05,221.24a6.6,6.6,0,0,1,2,4.87,18.08,18.08,0,0,1-1.82,7.18l-7,15.94h-6.43l4.29-17.34a7.16,7.16,0,0,1-2.09-2.51,7,7,0,0,1-.8-3.27,6.66,6.66,0,0,1,2-4.81,6.52,6.52,0,0,1,4.87-2A6.75,6.75,0,0,1,2578.05,221.24Z"/><path d="M1016.89,311.61h-12.2v31.68h-9.21V269.64h18.95q13.59,0,20.61,5.25t7,15.41q0,7.71-4,12.53T1026,310l19.91,33.29h-11Zm-1.39-7.18q8.25,0,12.47-3.37t4.23-10.76q0-6.94-4.23-10.16t-13.65-3.22h-9.63v27.51Z"/><path d="M1099.32,272.8a29.07,29.07,0,0,1,10.81,13q3.86,8.56,3.85,20.76,0,12-3.85,20.56a28.07,28.07,0,0,1-27,17.44,29.68,29.68,0,0,1-16.16-4.38,28.81,28.81,0,0,1-10.81-12.9q-3.86-8.52-3.85-20.61,0-11.88,3.85-20.55A29.57,29.57,0,0,1,1067,272.91a29,29,0,0,1,16.11-4.55A29.41,29.41,0,0,1,1099.32,272.8Zm-31.58,10.76q-5.57,7.5-5.57,23.12,0,15.42,5.62,22.8t15.36,7.39q10.06,0,15.52-7.33t5.46-23q0-15.61-5.46-23.06t-15.52-7.44Q1073.31,276.07,1067.74,283.56Z"/><path d="M1178.42,322.42q0,20.86-28.58,20.87h-20.23V269.64h17.13q13.69,0,21,4.61t7.33,13.91a15.24,15.24,0,0,1-3.9,10.76,17.78,17.78,0,0,1-9.8,5.41Q1178.43,307.11,1178.42,322.42ZM1138.81,277v24.09h12q6.54,0,10.65-3.22a10.86,10.86,0,0,0,4.13-9.1q0-6.53-4.45-9.15T1147.7,277Zm25,55.88q4.82-2.9,4.81-10.49,0-7.4-4.65-10.76t-12.15-3.37h-13V335.8h11Q1158.93,335.8,1163.76,332.91Z"/><path d="M1235,272.8a29.09,29.09,0,0,1,10.82,13q3.84,8.56,3.85,20.76,0,12-3.85,20.56a28.1,28.1,0,0,1-27,17.44,29.68,29.68,0,0,1-16.16-4.38,28.75,28.75,0,0,1-10.81-12.9q-3.86-8.52-3.86-20.61,0-11.88,3.86-20.55a29.5,29.5,0,0,1,10.86-13.22,28.94,28.94,0,0,1,16.11-4.55A29.38,29.38,0,0,1,1235,272.8Zm-31.57,10.76q-5.58,7.5-5.57,23.12,0,15.42,5.62,22.8t15.36,7.39q10.06,0,15.52-7.33t5.46-23q0-15.61-5.46-23.06t-15.52-7.44Q1209,276.07,1203.47,283.56Z"/><path d="M1304.84,277.57h-20.66v65.72H1275V277.57h-21.19v-7.93h52.13Z"/><path d="M1325.6,343.29h-9.2V269.64h9.2Z"/><path d="M1382.5,270.07a35.54,35.54,0,0,1,9.15,5.46l-5,6a27.61,27.61,0,0,0-7-4.13,20.63,20.63,0,0,0-7.44-1.33,18.63,18.63,0,0,0-15.31,7.22q-5.79,7.23-5.78,23.18,0,15.3,5.78,22.74a18.29,18.29,0,0,0,15.2,7.44,20.06,20.06,0,0,0,8.35-1.6,37.54,37.54,0,0,0,7.38-4.61l4.71,6a26.86,26.86,0,0,1-8.72,5.83,29.86,29.86,0,0,1-12,2.3,28.45,28.45,0,0,1-15.79-4.44,29.49,29.49,0,0,1-10.81-13q-3.92-8.56-3.91-20.66t4-20.72a29.88,29.88,0,0,1,10.92-13,28.22,28.22,0,0,1,15.47-4.39A30.43,30.43,0,0,1,1382.5,270.07Z"/><path d="M1437.89,324.45H1409.2l-5.78,18.84H1394l23.87-73.65h11.78l23.76,73.65h-9.85Zm-2.35-7.6-12-39.5-12,39.5Z"/><path d="M1529,277.14h-29V302h25.16v7.49H1500V335.8h30.83v7.49h-40V269.64h39.28Z"/><path d="M1582.18,343.29H1573V269.64h9.2Z"/><path d="M1653.47,343.29h-12.41l-31-63.48q1.29,14.13,1.29,27.94v35.54h-8.67V269.64h12.09L1646,333.23q-.32-3.11-.75-9.8t-.43-12.57V269.64h8.67Z"/><path d="M1712.46,270.29a35.82,35.82,0,0,1,10,6L1717,282a29.74,29.74,0,0,0-7.65-4.49,24.39,24.39,0,0,0-8.62-1.39,19.67,19.67,0,0,0-10.7,3.1q-4.93,3.1-8,9.9t-3,17.29q0,15.74,5.3,23.12t15.57,7.39a28.19,28.19,0,0,0,14.35-3.53v-23h-13.38l-1.07-7.6h23.65v35.43a46.48,46.48,0,0,1-24.19,6.42q-14,0-22-9.74t-8-28.47q0-12,4.34-20.61a31.21,31.21,0,0,1,11.5-13,29.18,29.18,0,0,1,15.53-4.39A33.46,33.46,0,0,1,1712.46,270.29Z"/><path d="M1777.75,277.14h-29V302h25.16v7.49h-25.16V335.8h30.83v7.49h-40V269.64h39.28Z"/><path d="M1833.2,270.29a35.82,35.82,0,0,1,10,6l-5.46,5.67a29.74,29.74,0,0,0-7.65-4.49,24.31,24.31,0,0,0-8.62-1.39,19.67,19.67,0,0,0-10.7,3.1q-4.92,3.1-8,9.9t-3.06,17.29q0,15.74,5.3,23.12t15.58,7.39a28.18,28.18,0,0,0,14.34-3.53v-23h-13.38l-1.07-7.6h23.66v35.43a46.48,46.48,0,0,1-24.19,6.42q-14,0-22.06-9.74t-8-28.47q0-12,4.33-20.61a31.23,31.23,0,0,1,11.51-13,29.15,29.15,0,0,1,15.52-4.39A33.42,33.42,0,0,1,1833.2,270.29Z"/><path d="M1911.13,343.29h-12.42l-31-63.48q1.27,14.13,1.28,27.94v35.54h-8.67V269.64h12.1l31.25,63.59q-.32-3.11-.75-9.8t-.42-12.57V269.64h8.67Z"/><path d="M1969.79,277.14h-29V302h25.15v7.49h-25.15V335.8h30.83v7.49h-40V269.64h39.29Z"/><path d="M2008.11,311.61h-12.2v31.68h-9.21V269.64h19q13.59,0,20.6,5.25t7,15.41q0,7.71-4,12.53t-12,7.17l19.91,33.29h-11Zm-1.39-7.18q8.23,0,12.47-3.37c2.81-2.25,4.23-5.83,4.23-10.76,0-4.63-1.42-8-4.23-10.16s-7.37-3.22-13.65-3.22h-9.63v27.51Z"/><path d="M2058.63,343.29h-9.2V269.64h9.2Z"/><path d="M2112.79,324.45h-28.68l-5.78,18.84h-9.42l23.87-73.65h11.77l23.77,73.65h-9.85Zm-2.35-7.6-12-39.5-12,39.5Z"/><path d="M2207.21,277.4q9.95,7.77,9.95,28.64,0,20.55-10,28.9t-24.35,8.35h-17.13V269.64h15.2Q2197.25,269.64,2207.21,277.4Zm-32.33-.26V335.9h8.67q10.48,0,17.07-6.47t6.59-23.39q0-11.88-3.38-18.25t-8.67-8.51a32.78,32.78,0,0,0-12.36-2.14Z"/><path d="M2270.9,277.14h-29V302H2267v7.49h-25.15V335.8h30.83v7.49h-40V269.64H2272Z"/><path d="M2297,343.29h-9.21V269.64H2297Z"/><path d="M2374.78,270.45a33,33,0,0,1,9.9,6.37l-5,5.67a31.51,31.51,0,0,0-8.19-4.87,24,24,0,0,0-8.72-1.55q-6.1,0-9.9,2.83A9.49,9.49,0,0,0,2349,287a10.87,10.87,0,0,0,1.34,5.67,12,12,0,0,0,4.87,4.12,60.45,60.45,0,0,0,10.17,3.91,66.54,66.54,0,0,1,11.56,4.6,19.43,19.43,0,0,1,7.33,6.74,19.79,19.79,0,0,1,2.73,10.82,20.09,20.09,0,0,1-12,19,32.24,32.24,0,0,1-13.76,2.72q-15,0-24.73-9.42l5.25-5.88a34,34,0,0,0,9,5.67,26.56,26.56,0,0,0,10.38,1.93,18.43,18.43,0,0,0,11.67-3.59q4.6-3.58,4.6-10.11a13,13,0,0,0-1.44-6.43,12.17,12.17,0,0,0-4.93-4.49,51.85,51.85,0,0,0-9.9-3.86q-11.34-3.42-16.48-8.18t-5.14-12.9a17.25,17.25,0,0,1,2.89-9.8,19.09,19.09,0,0,1,8.08-6.74,27.72,27.72,0,0,1,11.83-2.41A33.44,33.44,0,0,1,2374.78,270.45Z"/><path d="M2410.37,343.29h-9.2V269.64h9.2Z"/><path d="M2461.06,270.45a33,33,0,0,1,9.9,6.37l-5,5.67a31.84,31.84,0,0,0-8.19-4.87,24.13,24.13,0,0,0-8.73-1.55c-4.06,0-7.37.94-9.9,2.83a9.51,9.51,0,0,0-3.8,8.09,11,11,0,0,0,1.34,5.67,12,12,0,0,0,4.87,4.12,60.8,60.8,0,0,0,10.17,3.91,66.21,66.21,0,0,1,11.56,4.6,19.36,19.36,0,0,1,7.33,6.74,19.79,19.79,0,0,1,2.73,10.82,20.79,20.79,0,0,1-3.1,11.34,20.56,20.56,0,0,1-8.94,7.66,32.16,32.16,0,0,1-13.75,2.72q-15,0-24.73-9.42l5.24-5.88a34.24,34.24,0,0,0,9,5.67,26.49,26.49,0,0,0,10.38,1.93,18.43,18.43,0,0,0,11.67-3.59q4.59-3.58,4.6-10.11a12.93,12.93,0,0,0-1.45-6.43,12.14,12.14,0,0,0-4.92-4.49,52.12,52.12,0,0,0-9.9-3.86q-11.35-3.42-16.49-8.18t-5.13-12.9a17.25,17.25,0,0,1,2.89-9.8,19,19,0,0,1,8.08-6.74,27.72,27.72,0,0,1,11.83-2.41A33.48,33.48,0,0,1,2461.06,270.45Z"/><path d="M2528,277.57h-20.66v65.72h-9.2V277.57H2477v-7.93h52.13Z"/><path d="M2577.79,277.14h-29V302h25.15v7.49h-25.15V335.8h30.83v7.49h-40V269.64h39.29Z"/><path d="M2660,343.29h-9l-2.78-33.72q-1.81-20.24-2-30.51l-16.59,55.77h-8.68L2603.58,279q-.21,13.69-1.71,31.15l-2.57,33.18h-8.78l6.21-73.65h12.63l16.17,54.49,15.41-54.49h12.63Z"/><path d="M2687.08,343.29h-9.21V269.64h9.21Z"/></svg>