<svg xmlns="http://www.w3.org/2000/svg" viewBox="0 0 254.62 216.32"><title>logo_verticale_BLACK</title><g id="Layer_2" data-name="Layer 2"><path d="M27,135.84c0-.79-.11-1-.84-1.05l-3.29-.36v-3.34H36.78v3.34l-3.49.42c-.78.1-.84.2-.84,1v20c0,9.39-5.27,13.62-14.29,13.62-10,0-14-4.59-14-13.77V135.84c0-.79-.1-1-.83-1.05L0,134.43v-3.34H14.56v3.34l-3.5.42c-.78.1-.83.2-.83,1v19c0,6.63,2.29,9.6,8.24,9.6S27,162,27,155Z"/><path d="M56.09,168.86v-3.28l2.61-.32c.73-.1.83-.41.83-1v-12.1c0-3.13-.36-5.74-3.7-5.74a13.23,13.23,0,0,0-7.15,2.71v15c0,.83,0,.94.83,1l2.77.37v3.33H39.34v-3.39l2.5-.31c.74-.1.84-.26.84-1v-16.8c0-.58-.16-.94-.68-1.1l-2.87-1,.52-3.34h7.73l.41,2.87.21.05c2.92-2,6-3.44,9.76-3.44,5.63,0,7.77,3.55,7.77,9.55v13.2c0,.83.06.94.84,1l2.87.37v3.33Z"/><path d="M71.48,168.86v-3.28l3.13-.42c.73-.1.84-.26.84-1v-16.8c0-.58-.16-.94-.68-1.1l-2.87-1,.52-3.34h9v22.23c0,.83,0,.94.83,1l3.08.37v3.33Zm6.31-32.08a3.55,3.55,0,0,1-3.91-3.92c0-2.45,1.41-3.81,3.91-3.81s3.92,1.36,3.92,3.81A3.57,3.57,0,0,1,77.79,136.78Z"/><path d="M97.36,168.86l-8.61-22.17c-.21-.63-.47-.73-1.09-.89l-2.2-.47.68-3.44H98.46v3.44l-3.5.42,6.42,17.38h.21l6.47-17.38-3.45-.42.58-3.44h10.75v3.44l-1.78.32c-.68.1-1,.2-1.3.88l-8.56,22.33Z"/><path d="M139.83,167a21.88,21.88,0,0,1-10,2.45c-9.7,0-12.88-6.21-12.88-14.24,0-9.45,5.48-13.88,12.31-13.88,6.57,0,11.06,3.49,11.06,12.57,0,.68-.05,2-.15,3H123.29c.26,4.85,2.14,7.72,7.2,7.72a18.25,18.25,0,0,0,7.67-1.83Zm-5.53-14.4c0-5.12-2.35-6.73-5.16-6.73-3,0-5.53,2-5.8,6.73Z"/><path d="M144,168.86v-3.39l2.51-.31c.73-.1.83-.26.83-1v-16.8a1,1,0,0,0-.68-1.1l-2.87-1,.53-3.34H152l.58,3.81.15.05c1.72-2.24,4.18-4.38,7.67-4.38a19.44,19.44,0,0,1,4.07.47v8.55l-4.69-.2-.63-3.24c-.05-.47-.16-.57-.63-.57-2,0-4.22,1.72-5.27,2.71v15c0,.84.11,1,.89,1.05l4.9.42v3.33Z"/><path d="M182.88,149.66l-.58-3a.75.75,0,0,0-.57-.73,13.87,13.87,0,0,0-3.76-.52c-3.34,0-4.95,1.2-4.95,3.28,0,2.77,2.92,3.39,6.2,4.18,4.13,1,8.77,2.24,8.77,8.19,0,6.16-5.11,8.45-11.06,8.45-4.49,0-8.87-1.2-9.81-1.83v-7.09l4.33.26L172,164c.11.42.16.58.63.73a15.28,15.28,0,0,0,4.69.73c3.24,0,5.22-.94,5.22-3.6,0-2.92-3.34-3.39-6.83-4.17-4-.89-8.14-2.14-8.14-7.67,0-6.31,5.27-8.66,10.9-8.66a26.62,26.62,0,0,1,8.77,1.51v7Z"/><path d="M190.91,168.86v-3.28l3.13-.42c.73-.1.84-.26.84-1v-16.8c0-.58-.16-.94-.68-1.1l-2.87-1,.52-3.34h9v22.23c0,.83.05.94.83,1l3.08.37v3.33Zm6.31-32.08a3.55,3.55,0,0,1-3.91-3.92c0-2.45,1.41-3.81,3.91-3.81s3.92,1.36,3.92,3.81A3.57,3.57,0,0,1,197.22,136.78Z"/><path d="M226.39,167.66a19,19,0,0,1-7.72,1.83c-5.48,0-7.78-2.4-7.78-7.56V146.69c0-.31,0-.52-.41-.52h-3.76v-3.71c4.07-.52,5.69-3.28,6.37-7.88h3.8v6.79c0,.36,0,.52.42.52h7.57v4.28h-8v14.19c0,3.24.84,4.44,3.76,4.44a14.31,14.31,0,0,0,4.54-.89Z"/><path d="M246.43,168.86l-.53-3.07-.15-.06a12.6,12.6,0,0,1-9.18,3.76c-6.58,0-7.47-4.49-7.47-7.41,0-5.22,3.24-7.72,9.6-8.24l6.63-.52v-2.66c0-3.29-.57-5.07-4.59-5.07-2.87,0-4.8.21-4.8,3.81l-5.64-.52c0-6.68,6.11-7.51,10.54-7.51,7.57,0,10.39,2.14,10.39,9.34v13.41c0,.83.05.94.83,1l2.56.37v3.33Zm-2.93-29.42-9.23-7.52,3.6-3.49,8,8.76Zm1.83,17.69-5,.41c-3.91.37-5.11,1.46-5.11,4s1.2,3.34,3.34,3.34a10.34,10.34,0,0,0,6.73-3.13Z"/><path d="M20.63,215.7l-.49-3.06-.33,0a12.5,12.5,0,0,1-9.26,3.73c-6.26,0-10.4-3.84-10.4-13.54,0-10.32,5.12-14.41,11.44-14.41a13.88,13.88,0,0,1,8.06,2.33v-8.81a.93.93,0,0,0-.71-1l-3.11-1,.55-3.32h9.37V211c0,.83.05.93.87,1l2.66.36v3.32Zm-1.15-20.07a10.77,10.77,0,0,0-6.31-2.49c-4.69,0-6.54,3.94-6.54,9.49,0,6.38,2,8.82,5.67,8.82,2.66,0,5.28-1.56,7.18-3.48Z"/><path d="M31.9,215.7v-3.27l3.27-.41c.76-.11.87-.26.87-1v-16.7c0-.57-.17-.93-.71-1.09l-3-1,.55-3.32H42.3V211c0,.83.05.93.87,1l3.21.36v3.32Zm6.59-31.9c-2.62,0-4.09-1.4-4.09-3.89s1.47-3.78,4.09-3.78,4.08,1.35,4.08,3.78S41.05,183.8,38.49,183.8Z"/><path d="M96.3,202c-.65.06-.87.21-.87.73v11.15c-4.14,1.87-9.58,2.49-14.1,2.49-14.87,0-20-8.35-20-19.5s6.7-19.34,20.42-19.34c3.92,0,9,.93,12.31,3v9.8l-6-.42-.81-4.67c-.17-.72-.38-.93-.87-1a20.91,20.91,0,0,0-5-.68c-7,0-11.22,5.09-11.22,13.23,0,8.55,3.81,13.64,11.6,13.64a30.29,30.29,0,0,0,4.52-.37c.6-.1.87-.26.87-.93v-6.79h-6l.77-4.67H98.53v4.15Z"/><path d="M125.76,213.68a26.56,26.56,0,0,1-11.16,2.64c-10.51,0-14.11-6.22-14.11-14.31,0-9.39,6.05-13.85,13.51-13.85,7.19,0,12,3.58,12,12.55,0,.62-.06,2.44-.11,3.47H109.21c.27,3.69,2,6.12,6.42,6.12a24.11,24.11,0,0,0,8.12-1.76Zm-7.84-14.42c-.06-4.36-1.85-5.5-4.09-5.5s-4.24,1.25-4.57,5.5Z"/><path d="M149.12,215.7V199c0-2.49-.16-4.57-2.89-4.57a11.36,11.36,0,0,0-5.66,1.92v13.9c0,.83.06.93.87,1l2.62.36v4.1H129v-4.15l2.45-.31c.76-.11.87-.26.87-1V195c0-.57-.16-.93-.71-1.08l-2.94-1,.65-4.2h9.53l.44,2.7.22.1a16.44,16.44,0,0,1,9.58-3.32c5.94,0,8.22,3.11,8.22,8.82V210.2c0,.83.06.93.87,1l2.73.36v4.1Z"/><path d="M163.06,202.37c0-8.61,4.74-14.21,14.7-14.21s14,5.71,14,13.64c0,8.82-4.68,14.52-14.7,14.52S163.06,210.51,163.06,202.37Zm20.1-.31c0-6.12-2-8.3-5.5-8.3s-6,2.13-6,8.35,2.12,8.77,5.77,8.77S183.16,208.54,183.16,202.06Z"/><path d="M204.39,215.7l-8.65-21.47c-.28-.62-.49-.73-1.15-.88l-2.29-.47.88-4.2h14.75v4.2l-3.48.41L210,208.07h.38l5.78-14.78-3.54-.41.7-4.2H225.9v4.2l-2,.31c-.71.16-1.09.26-1.36.88l-8.66,21.63Z"/><path d="M244.63,215.7l-.54-2.8-.27-.05a12.63,12.63,0,0,1-9.15,3.47c-6.86,0-7.95-4.46-7.95-7.67,0-5.19,3.38-7.58,10.18-8l6.26-.42v-2.85c0-2.44-.27-4.1-3.64-4.1-2.62,0-4,.37-4,3.48l-7.68-.62c0-7,6.7-8,11.71-8,8.28,0,11.6,2.13,11.6,9.39v12.6c0,.83.05.93.87,1l2.61.41v4.1Zm-1.47-11.15-3.7.26c-3.21.2-4.35,1-4.35,3.06s1.3,2.85,3.1,2.85a9.2,9.2,0,0,0,4.95-1.87Z"/><rect x="80.81" y="1.09" width="92.86" height="30.73" style="fill:none"/><path d="M127.44,109A38.22,38.22,0,1,1,165.66,70.8,38.25,38.25,0,0,1,127.44,109Zm0-74.24a36,36,0,1,0,36,36A36.06,36.06,0,0,0,127.44,34.77Z" style="fill:#333"/><g id="LWPOLYLINE"><path d="M127.29,60h-1.1a.16.16,0,0,1-.16-.16.16.16,0,0,1,.16-.15h1.1l1.1-.06.78-.11.26-.06a.15.15,0,0,1,.18.12.15.15,0,0,1-.11.19l-.27.06-.81.11-.36,0Z"/></g><g id="LWPOLYLINE-2" data-name="LWPOLYLINE"><path d="M113.77,78.56l-.25,0-.3-.1-.19-.09-.22-.15-.36-.35-.33-.45-.08-.16-.12-.35,0-.22,0-.2.17-.3.21-.25.39-.33.43-.24.27-.1h0l0-.25.09-.17.18-.14.14,0,.16,0h.15l.39.06.64.12.09.41.11.36.38.93.23.5.39,1-.45,0-.47,0-.61.16-.9.38Zm.09-3.45,0,.07,0,.19.06.23-.62.15-.36.2-.32.27-.28.42h0v0l0,.18.2.43.33.4.35.27.14.07.22.07h.17l.22,0,.7-.33.42-.13.28-.05.33,0-.14-.37-.23-.49-.39-1-.15-.53-.8-.12Z" style="fill:#333"/></g><g id="LWPOLYLINE-3" data-name="LWPOLYLINE"><polygon points="132.16 58.98 131.91 58.97 131.65 59.02 131.37 59.06 130.99 59.14 130.68 59.23 130.32 59.37 130.11 59.46 129.95 59.53 129.84 59.57 129.76 59.57 129.69 59.54 129.63 59.48 129.58 59.39 129.53 59.22 129.5 58.98 129.5 58.69 129.53 58.35 129.62 57.9 129.78 57.4 130.2 55.96 130.29 55.33 130.31 54.87 130.27 54.47 130.2 54.2 130.06 53.89 129.94 53.73 129.8 53.6 129.66 53.51 129.46 53.42 129.3 53.38 129.1 53.35 128.92 53.35 128.64 53.37 128.33 53.4 128.1 53.4 127.88 53.41 127.65 53.41 127.28 53.4 127.07 53.38 126.86 53.39 126.62 53.42 126.51 53.45 126.38 53.5 126.27 53.56 126.18 53.62 126.09 53.69 126.01 53.77 125.93 53.88 125.86 53.99 125.77 54.2 125.71 54.4 125.67 54.66 125.65 54.88 125.67 55.38 125.72 55.77 125.82 56.27 125.96 56.79 126.07 57.12 126.22 57.56 126.33 57.94 126.4 58.37 126.4 58.85 126.36 59.2 126.1 59.64 125.88 59.8 125.64 59.8 125.38 59.79 125.09 59.79 124.83 59.81 124.32 59.83 124.03 59.87 123.62 59.95 123.17 60.07 123.46 59.79 123.84 59.29 124.03 58.93 124.3 58.3 124.51 57.65 124.7 56.76 124.77 56 124.77 55.5 124.79 54.82 124.91 54.13 125.19 53.33 125.38 52.87 126.03 52.8 126.71 52.73 127.35 52.7 127.85 52.69 128.95 52.7 130.09 52.79 130.87 52.88 130.92 53.18 131.15 54.23 131.37 55.27 131.45 55.8 131.48 56.12 131.49 56.66 131.47 56.86 131.44 57.1 131.42 57.31 131.41 57.5 131.41 57.75 131.47 58.04 131.56 58.3 131.69 58.52 131.9 58.72 132.16 58.98"/></g><g id="LWPOLYLINE-4" data-name="LWPOLYLINE"><path d="M126.19,60a.16.16,0,0,1-.13-.06.16.16,0,0,1,0-.22l0,0,.28-.45,0-.37v-.5l-.07-.43-.11-.38-.26-.76-.14-.52-.1-.49,0-.39,0-.49v-.22l.05-.26,0-.19.15-.31.15-.17.18-.13.23-.11.1,0,.23,0h.21l.59,0,.69,0,.57,0h.18l.35.07.18.08.14.08.13.13.12.15.14.29.07.26,0,.4,0,.45-.09.63-.58,2-.09.46,0,.35V59l0,.26.06.18.06.09a.17.17,0,0,1-.06.22.16.16,0,0,1-.21-.06l-.07-.13-.08-.24,0-.3v-.33l0-.37.09-.49.16-.52.42-1.43.09-.59v-.41l0-.35,0-.21-.12-.25-.08-.1-.19-.14-.25-.09-.31,0-1.26.06-.59,0h-.18l-.27.06-.22.11-.11.1-.11.15-.07.17,0,.15,0,.42,0,.45,0,.37.1.47.24.82.16.44.11.41.08.47v.54l0,.41a.14.14,0,0,1,0,.07l-.31.5,0,0-.07.05Z"/></g><g id="LWPOLYLINE-5" data-name="LWPOLYLINE"><path d="M127.59,58.77l-.46-.08-.42-.2-.29-.22a.22.22,0,1,1,.29-.33l.31.23.25.11.34,0h.26l.43-.12.21-.09.3-.17.31-.21a.22.22,0,0,1,.31.06.22.22,0,0,1-.06.3l-.33.22-.59.3-.25.08-.28.06Z"/></g><g id="LWPOLYLINE-6" data-name="LWPOLYLINE"><polygon points="125.19 52.2 124.79 52.09 124.49 51.91 124.22 51.61 124.05 51.19 124.03 50.76 124.12 50.44 124.25 50.2 124.47 49.95 124.69 49.8 124.97 49.69 125.22 49.65 125.62 49.63 126.01 49.51 126.31 49.36 126.6 49.18 126.83 48.98 127.01 48.76 127.2 48.48 127.27 48.41 127.53 48.22 127.69 48.14 128.09 48.06 128.37 48.08 128.72 48.2 128.97 48.36 129.14 48.54 129.28 48.76 129.3 48.83 129.71 49.2 130.04 49.41 130.27 49.51 130.5 49.59 130.82 49.65 131.21 49.67 131.44 49.74 131.8 49.95 132 50.16 132.16 50.45 132.24 50.7 132.25 50.95 132.2 51.31 132.08 51.57 131.9 51.8 131.72 51.96 131.5 52.09 131.29 52.16 131.12 52.19 131.09 52.21 131.09 52.31 131.07 52.43 131.03 52.6 130.97 52.71 130.86 52.73 130.3 52.68 129.58 52.59 129.01 52.55 128.08 52.54 127.19 52.53 126.34 52.62 125.68 52.66 125.39 52.72 125.31 52.69 125.27 52.64 125.23 52.55 125.2 52.43 125.19 52.2"/></g><polygon points="122.14 11.5 80.69 11.5 80.69 22.01 122.14 22.01 122.14 31.83 132.64 31.83 132.64 22.01 174.09 22.01 174.11 11.5 132.64 11.5 132.64 1.69 122.14 1.69 122.14 11.5"/><path d="M174.1,31.51v-.68H80.69v.68l0,1.9v2.88l0,3.62L80.78,44l.15,4.38.23,4.4L81.49,57l.45,3.79.55,3.39.65,3L83.88,70l.82,2.53.89,2.35.94,2.23,1,2.16,1,2.13,1.1,2.14,1.18,2.13,1.29,2.15L93.55,90l1.58,2.2,1.76,2.23,2,2.29,2.2,2.34,2.48,2.38,2.81,2.42,3.2,2.44,3.66,2.45,4.15,2.45,4.72,2.43,5.32,2.41,5.33-2.41,4.71-2.43,4.15-2.45,3.66-2.45,3.2-2.44,2.82-2.42L153.73,99l2.2-2.34,2-2.29,1.76-2.23,1.58-2.2,1.42-2.17,1.29-2.15,1.19-2.13,1.09-2.14,1-2.13,1-2.16.95-2.23.88-2.35L170.9,70l.74-2.77.65-3,.56-3.39.44-3.79.33-4.19.23-4.4L174,44l.08-4.11,0-3.62V31.51Zm-46.71,73.72a35.38,35.38,0,1,1,35.38-35.37A35.37,35.37,0,0,1,127.39,105.23Z"/><path d="M127.17,117.11l-5.58-2.53-4.75-2.45-4.18-2.47L109,107.19l-3.24-2.46-2.84-2.44-2.51-2.41-2.22-2.36-2-2.31L94.4,93l-1.59-2.22-1.44-2.19-1.31-2.17-1.19-2.16-1.11-2.15-2-4.32-1-2.25-.9-2.37L83,70.56l-.75-2.8-.66-3.08-.56-3.42-.45-3.82-.33-4.22-.23-4.42-.15-4.39-.11-7.75V33.77L79.94.22h.87l93.72,0,0,33.57,0,6.5-.08,4.12-.14,4.39-.23,4.41-.33,4.21-.45,3.81-.56,3.42-.65,3.08-.75,2.8-.83,2.56-.9,2.38-1,2.26-2,4.33-1.11,2.14-1.19,2.15L163,88.5l-1.44,2.19L160,92.91l-1.78,2.26-2,2.31L154,99.84l-2.5,2.41-2.84,2.44-3.23,2.46-3.69,2.48-4.19,2.47-4.74,2.45ZM81.68,2l-.13,31.81,0,6.48.08,4.1.15,4.36L82,53.11l.33,4.16L82.8,61l.55,3.35.64,3,.73,2.71.8,2.48.87,2.3L87.32,77l2,4.25,1.09,2.11,1.17,2.1,1.27,2.11,1.4,2.14L95.8,91.9l1.73,2.2,1.94,2.25,2.16,2.3,2.44,2.34,2.76,2.38,3.16,2.4,3.6,2.41,4.1,2.41,4.66,2.41,4.82,2.18,4.88-2.2,4.66-2.42,4.1-2.42,3.6-2.41,3.15-2.4,2.76-2.38,2.43-2.34,2.16-2.3,1.93-2.25,1.73-2.2,1.55-2.16,1.4-2.13,1.26-2.11,1.17-2.1L165,81.25,167,77l.93-2.2.87-2.31.8-2.48.72-2.71.64-3,.55-3.34.43-3.74.33-4.15.23-4.38.14-4.35.11-7.71V2Z"/><g id="LWPOLYLINE-7" data-name="LWPOLYLINE"><path d="M120.57,63.77a.48.48,0,0,1-.31-.13.44.44,0,0,1,0-.58l2.06-2.71.64-.45.71-.2,1-.1h2.67l1.87-.17,2.76-.74.46.06.16.08.16.11.27.26.81,1.12.43.71a.45.45,0,0,1,0,.39.43.43,0,0,1-.3.26l-4.47,1.09-2.42.47-1.07,0-3.3-.08-1.45.24-.2.11-.19.16A.44.44,0,0,1,120.57,63.77Zm5.22-3.31-2.6.28-.3.24-.82,1-.29.41.86-.08h.61l2.73.08h1l2.32-.46,3.87-.94-.44-.68-.59-.69-.2,0-.57.08-2.45.72-.81.09-.78,0Z"/></g><polyline points="136.39 68.52 130.58 66.95 125.68 79.29 134.6 80.91 133.99 73.54 136.39 68.52" style="fill:none"/><path d="M120.76,73.91l-.36,3.42-.3,3.46-.55,5L119,89l-.43,2.15-.52,2.13-.59,2.15-.34,1.63-.35,2-.22,1.43-.2,1.39,23,.19L138.31,98l-.43-1.77-.32-1.41L137.19,93,137,91.46l-.23-3.78-.11-3.52-.06-2.88,0-1.88v-.66l-.21.18-.54.59-.46.42-.6.61-.64-6.93.31-.78.68,6.74.7-.78,1-1.25.57-.72L138,76l.31-.68.42-1.17.27-.89.16-.8,0-.74-.18-1.56-.45-1.28-.92-2.19-.91-2-.2-.31-1.28-1.61-1.31-1.5-.25.07-4.25,1-1.66.36-.77.12-1,0-1.5-.08-1-.05h-.76l-.81.08-.44.1-.36.13-.22.12-.26.19-.19.2-.2.26-.23.36-.17.33-.25.53-.25.63-.41,1.18L118.48,68,118,69.4l-.26.51-.51.8-.61.85-.49.69-.43.65-.31.55-.27.64-.08.31,0,.26v.14l0,.13,0,.15.06.22.1.31.14.34.08.2.13.28.17.36.18.4.15.36.08.22.08.32v.3l.11.47,0,.37.08.4.14.5.05.13.1.18.07.1.12.1.11,0,.16,0,.12,0,.17,0,.12-.07.13-.08.09-.08.18-.17.23-.29.23-.36.26-.46.19-.37.45-1.07.35-1,.39-1.25.18-1.64.29-2.28.2-1.37.42-2.54.39.16-.44,2.88Zm10.62-5.73,3.82,1L134,73.4l-.5-.05h-.77l-.41,0h-.25l-.2,0-.15,0-.16,0-.1,0h-.12l-.17,0-.11.17v.19l0,.13.06.1.06.07.1.1.14.1.37.22h-.05l-.29,0-.36,0-.42,0-.39,0-.4.07-.44-.11Zm-1.94,7,0-.1.05-.09.08-.08.09-.07.22-.08.3-.05.2,0,.31,0,.42,0,.37,0,.31,0,.14,0,.08,0,0,0,.05,0,0,0v0l0-.06-.06,0-.11-.08-.36-.2-.12-.09-.09-.08,0,0,0-.07,0-.07v-.1l0,0h.12l.09,0,.16,0,.17,0,.22,0h.27l.41,0h.75l.18,0,.19,0,.19,2.13-.16.13-.2.13-.17.09-.32.15-.26.11-.25.1-.36.12-.33.1-.43.1-.33,0-.36,0-.36,0-.39-.12-.27-.18-.17-.19-.15-.31-.06-.2,0-.27v-.37Z"/></g></svg>