<svg xmlns="http://www.w3.org/2000/svg" viewBox="0 0 254 216.21"><title>logo_verticale_COLORE</title><g id="Layer_2" data-name="Layer 2"><path d="M26.91,135.63c0-.79-.1-1-.83-1l-3.28-.36v-3.35H36.7v3.35l-3.49.42c-.78.1-.83.2-.83,1v20.06c0,9.4-5.26,13.63-14.27,13.63-9.94,0-14-4.59-14-13.79v-19.9c0-.79-.1-1-.83-1L0,134.22v-3.35H14.52v3.35l-3.49.42c-.78.1-.83.2-.83,1v19c0,6.64,2.29,9.62,8.23,9.62s8.48-2.46,8.48-9.46Z" style="fill:#131313"/><path d="M56,168.7v-3.29l2.61-.32c.72-.1.83-.42.83-1V151.93c0-3.14-.37-5.75-3.7-5.75a13.13,13.13,0,0,0-7.13,2.72v15c0,.84,0,.94.83,1.05l2.76.36v3.35H39.24v-3.4l2.5-.31c.73-.11.84-.26.84-1.05V147.12c0-.57-.16-.94-.68-1.1L39,145l.52-3.34h7.7l.42,2.87.21.05c2.91-2,6-3.44,9.73-3.44,5.62,0,7.75,3.55,7.75,9.56v13.21c0,.84.06.94.84,1.05l2.86.36v3.35Z" style="fill:#131313"/><path d="M71.31,168.7v-3.29l3.12-.42c.73-.11.83-.26.83-1.05V147.12c0-.57-.15-.94-.67-1.1l-2.87-1,.52-3.34h9v22.25c0,.84,0,.94.83,1.05l3.07.36v3.35Zm6.3-32.13a3.55,3.55,0,0,1-3.91-3.92c0-2.45,1.41-3.81,3.91-3.81s3.9,1.36,3.9,3.81A3.57,3.57,0,0,1,77.61,136.57Z" style="fill:#131313"/><path d="M97.12,168.7l-8.58-22.21c-.21-.62-.47-.73-1.1-.88l-2.18-.47.67-3.45H98.22v3.45l-3.49.41,6.4,17.4h.21l6.45-17.4-3.43-.41.57-3.45h10.72v3.45l-1.77.31c-.67.1-1,.21-1.3.89l-8.53,22.36Z" style="fill:#131313"/><path d="M139.49,166.87a21.75,21.75,0,0,1-10,2.45c-9.68,0-12.86-6.21-12.86-14.26,0-9.45,5.47-13.89,12.29-13.89,6.55,0,11,3.5,11,12.59,0,.67-.05,2-.16,3H123c.26,4.85,2.14,7.73,7.19,7.73a18.2,18.2,0,0,0,7.65-1.83ZM134,152.45c0-5.12-2.35-6.74-5.16-6.74s-5.51,2-5.78,6.74Z" style="fill:#131313"/><path d="M143.6,168.7v-3.4l2.5-.31c.73-.11.84-.26.84-1.05V147.12a1,1,0,0,0-.68-1.1l-2.86-1,.52-3.34h7.75l.57,3.81.16.05c1.72-2.24,4.16-4.38,7.65-4.38a18.63,18.63,0,0,1,4.06.47v8.56l-4.68-.21-.63-3.23c-.05-.47-.15-.58-.62-.58-2,0-4.22,1.73-5.26,2.72v15c0,.84.1,1,.89,1.05l4.89.41v3.35Z" style="fill:#131313"/><path d="M182.43,149.47l-.57-3a.78.78,0,0,0-.57-.73,13.85,13.85,0,0,0-3.75-.52c-3.33,0-4.94,1.2-4.94,3.29,0,2.77,2.91,3.4,6.19,4.18,4.11,1,8.74,2.25,8.74,8.2,0,6.17-5.1,8.46-11,8.46-4.48,0-8.85-1.2-9.79-1.82v-7.11l4.32.26.52,3.19c.11.42.16.57.63.73a15.19,15.19,0,0,0,4.68.73c3.23,0,5.21-.94,5.21-3.6,0-2.93-3.33-3.4-6.82-4.18-4-.89-8.12-2.14-8.12-7.68,0-6.32,5.26-8.67,10.88-8.67a26.45,26.45,0,0,1,8.74,1.51v7Z" style="fill:#131313"/><path d="M190.45,168.7v-3.29l3.12-.42c.73-.11.83-.26.83-1.05V147.12c0-.57-.15-.94-.67-1.1l-2.87-1,.52-3.34h9v22.25c0,.84.05.94.83,1.05l3.07.36v3.35Zm6.3-32.13a3.55,3.55,0,0,1-3.91-3.92c0-2.45,1.41-3.81,3.91-3.81s3.9,1.36,3.9,3.81A3.57,3.57,0,0,1,196.75,136.57Z" style="fill:#131313"/><path d="M225.84,167.5a19,19,0,0,1-7.7,1.82c-5.47,0-7.76-2.4-7.76-7.57V146.49c0-.31,0-.52-.41-.52h-3.75v-3.71c4.06-.52,5.67-3.29,6.35-7.89h3.8v6.8c0,.36,0,.52.41.52h7.55V146h-8v14.21c0,3.24.83,4.44,3.75,4.44a14.19,14.19,0,0,0,4.52-.89Z" style="fill:#131313"/><path d="M245.83,168.7l-.52-3.09-.16-.05a12.54,12.54,0,0,1-9.16,3.76c-6.56,0-7.44-4.49-7.44-7.41,0-5.23,3.22-7.74,9.57-8.26l6.62-.52v-2.67c0-3.29-.58-5.06-4.59-5.06-2.86,0-4.78.21-4.78,3.81l-5.63-.52c0-6.69,6.09-7.52,10.52-7.52,7.55,0,10.36,2.14,10.36,9.35v13.42c0,.84,0,.94.83,1.05l2.55.36v3.35Zm-2.92-29.47-9.21-7.52,3.59-3.5,8,8.78Zm1.83,17.71-5,.42c-3.9.37-5.1,1.46-5.1,4s1.2,3.34,3.33,3.34a10.31,10.31,0,0,0,6.72-3.13Z" style="fill:#131313"/><path d="M20.58,215.59l-.49-3.07-.33-.05a12.4,12.4,0,0,1-9.23,3.74c-6.25,0-10.38-3.84-10.38-13.55,0-10.33,5.11-14.44,11.41-14.44a13.82,13.82,0,0,1,8,2.34v-8.83a.93.93,0,0,0-.71-1l-3.09-1,.54-3.32h9.34v34.47c0,.83.06.94.87,1l2.66.36v3.33Zm-1.14-20.1A10.83,10.83,0,0,0,13.13,193c-4.67,0-6.51,3.95-6.51,9.5,0,6.39,2,8.83,5.65,8.83,2.66,0,5.26-1.56,7.17-3.48Z" style="fill:#131313"/><path d="M31.82,215.59v-3.27l3.26-.42c.76-.1.87-.26.87-1V194.14c0-.57-.16-.93-.71-1.09l-3-1,.54-3.33h9.4v22.12c0,.83,0,.94.87,1l3.2.36v3.33Zm6.57-31.94c-2.6,0-4.07-1.4-4.07-3.89S35.79,176,38.39,176s4.08,1.35,4.08,3.79S41,183.65,38.39,183.65Z" style="fill:#131313"/><path d="M96.07,201.83c-.65,0-.87.2-.87.72v11.17c-4.13,1.87-9.56,2.49-14.07,2.49-14.83,0-19.94-8.36-19.94-19.52s6.69-19.37,20.37-19.37c3.92,0,9,.93,12.28,3v9.81l-6-.41L87,185.06c-.17-.73-.38-.94-.87-1a20.76,20.76,0,0,0-5-.68c-7,0-11.19,5.09-11.19,13.24,0,8.57,3.8,13.66,11.57,13.66a31.47,31.47,0,0,0,4.51-.36c.6-.11.87-.26.87-.94v-6.8h-6l.76-4.67H98.3v4.15Z"/><path d="M125.46,213.56a26.33,26.33,0,0,1-11.14,2.65c-10.48,0-14.07-6.23-14.07-14.33,0-9.4,6-13.86,13.47-13.86,7.17,0,12,3.58,12,12.56,0,.62,0,2.44-.1,3.48H108.94c.27,3.69,2,6.13,6.41,6.13a24.08,24.08,0,0,0,8.1-1.77Zm-7.83-14.43c0-4.36-1.84-5.51-4.07-5.51s-4.24,1.25-4.56,5.51Z"/><path d="M148.76,215.59V198.82c0-2.5-.16-4.57-2.88-4.57a11.28,11.28,0,0,0-5.65,1.92v13.91c0,.83.06.94.87,1l2.61.36v4.11h-15v-4.16l2.44-.31c.76-.1.87-.26.87-1V194.82c0-.57-.16-.94-.71-1.09l-2.93-1,.65-4.21h9.51l.43,2.71.22.1a16.41,16.41,0,0,1,9.56-3.32c5.92,0,8.2,3.11,8.2,8.82v13.24c0,.83.06.94.87,1l2.72.36v4.11Z"/><path d="M162.67,202.24c0-8.62,4.72-14.22,14.66-14.22s14,5.71,14,13.65c0,8.83-4.68,14.54-14.67,14.54S162.67,210.39,162.67,202.24Zm20-.31c0-6.13-2-8.31-5.48-8.31s-6,2.13-6,8.36,2.12,8.78,5.76,8.78S182.71,208.42,182.71,201.93Z"/><path d="M203.9,215.59l-8.64-21.5c-.27-.62-.49-.73-1.14-.88l-2.28-.47.87-4.21h14.72v4.21l-3.48.42L209.49,208h.38l5.76-14.79-3.53-.42.71-4.21h12.55v4.21l-2,.31c-.71.16-1.09.26-1.36.88l-8.63,21.66Z"/><path d="M244,215.59l-.54-2.81-.27-.05a12.56,12.56,0,0,1-9.13,3.48c-6.84,0-7.93-4.47-7.93-7.68,0-5.2,3.37-7.59,10.16-8l6.25-.42v-2.85c0-2.44-.28-4.1-3.64-4.1-2.61,0-4,.36-4,3.47l-7.66-.62c0-7,6.68-8,11.68-8,8.26,0,11.57,2.12,11.57,9.39V210c0,.83.06.94.87,1l2.61.41v4.11Zm-1.46-11.17-3.7.26c-3.2.21-4.34,1-4.34,3.07s1.3,2.85,3.09,2.85a9.12,9.12,0,0,0,5-1.87Z"/><rect x="80.93" y="1.09" width="92.2" height="30.49" style="fill:#fff"/><ellipse cx="127.23" cy="70.26" rx="36.86" ry="36.83" style="fill:#f4da40"/><g id="LWPOLYLINE"><path d="M127.08,59.53H126a.16.16,0,0,1-.15-.16.15.15,0,0,1,.15-.15h1.1l1.1-.06.77-.11.25-.06a.16.16,0,0,1,.19.12.17.17,0,0,1-.12.19l-.26.06-.8.11-.37,0Z"/></g><g id="LWPOLYLINE-2" data-name="LWPOLYLINE"><polygon points="114.81 74.41 114.39 74.32 114.03 74.27 113.9 74.27 113.79 74.28 113.69 74.31 113.63 74.34 113.56 74.41 113.53 74.47 113.51 74.56 113.5 74.65 113.51 74.72 113.52 74.79 113.54 74.85 113.43 74.87 113.37 74.89 113.25 74.92 113.11 74.97 112.98 75.04 112.86 75.11 112.72 75.19 112.57 75.3 112.37 75.48 112.18 75.7 112.08 75.88 112.04 75.95 112.03 76 112.02 76.08 112.02 76.15 112.03 76.25 112.05 76.33 112.13 76.55 112.21 76.7 112.28 76.82 112.37 76.94 112.5 77.11 112.64 77.26 112.83 77.42 113.02 77.56 113.18 77.64 113.43 77.72 113.64 77.75 113.78 77.73 113.94 77.69 114.12 77.61 114.29 77.52 114.5 77.42 114.66 77.36 114.83 77.3 115.05 77.24 115.31 77.19 115.59 77.17 115.82 77.16 115.92 77.17 115.67 76.5 115.43 76 115.21 75.46 115.05 75.06 114.93 74.68 114.88 74.42 114.81 74.41" style="fill:#fff"/><path d="M113.66,78l-.25,0-.3-.09-.19-.1-.22-.15-.36-.34-.32-.44-.08-.17-.12-.35,0-.22,0-.19.16-.3.21-.25.39-.33.43-.23.27-.1v0l0-.24.09-.17.18-.14.14,0,.15,0H114l.39.06.64.12.09.41.11.35.37.93.24.49.38,1-.45,0-.47,0-.6.16-.9.38Zm.08-3.42,0,.07,0,.19,0,.23-.61.15-.35.2-.32.26-.29.41v.06l0,.17.21.42.2.28.3.28.31.19.22.07h.16l.23,0,.69-.32L115,77l.61-.08-.14-.37-.23-.49-.38-1-.16-.53-.79-.12Z" style="fill:#333"/></g><g id="LWPOLYLINE-3" data-name="LWPOLYLINE"><polygon points="131.91 58.53 131.66 58.52 131.41 58.57 131.13 58.61 130.75 58.69 130.44 58.78 130.09 58.92 129.88 59.01 129.72 59.08 129.62 59.12 129.53 59.12 129.47 59.09 129.4 59.03 129.35 58.94 129.3 58.77 129.27 58.53 129.27 58.25 129.31 57.91 129.4 57.46 129.55 56.97 129.97 55.53 130.06 54.91 130.08 54.46 130.04 54.05 129.97 53.79 129.83 53.49 129.71 53.33 129.57 53.2 129.43 53.1 129.24 53.02 129.08 52.98 128.88 52.95 128.7 52.94 128.42 52.96 128.11 52.99 127.89 53 127.67 53 127.44 53 127.07 52.99 126.86 52.98 126.65 52.98 126.41 53.02 126.31 53.05 126.18 53.1 126.07 53.16 125.98 53.21 125.89 53.29 125.81 53.36 125.73 53.47 125.66 53.58 125.57 53.78 125.51 53.98 125.47 54.24 125.45 54.47 125.47 54.96 125.52 55.35 125.62 55.84 125.76 56.36 125.87 56.69 126.02 57.13 126.13 57.51 126.2 57.92 126.19 58.41 126.16 58.75 125.89 59.18 125.68 59.35 125.44 59.35 125.18 59.34 124.89 59.34 124.64 59.35 124.13 59.38 123.84 59.41 123.44 59.49 123 59.62 123.28 59.33 123.66 58.84 123.84 58.48 124.11 57.86 124.32 57.21 124.51 56.33 124.58 55.57 124.58 55.08 124.6 54.41 124.72 53.72 124.99 52.93 125.19 52.47 125.83 52.4 126.5 52.33 127.14 52.3 127.64 52.29 128.73 52.3 129.86 52.39 130.63 52.48 130.69 52.78 130.91 53.82 131.13 54.85 131.21 55.38 131.24 55.69 131.25 56.23 131.23 56.43 131.2 56.67 131.18 56.88 131.17 57.07 131.18 57.31 131.23 57.6 131.32 57.85 131.45 58.08 131.65 58.27 131.91 58.53" style="fill:#333"/></g><g id="LWPOLYLINE-4" data-name="LWPOLYLINE"><polyline points="129.24 59.15 129.17 59.02 129.11 58.82 129.07 58.54 129.07 58.24 129.11 57.88 129.2 57.41 129.35 56.91 129.77 55.49 129.86 54.89 129.87 54.46 129.84 54.09 129.78 53.86 129.66 53.59 129.56 53.46 129.45 53.36 129.33 53.28 129.17 53.21 129.04 53.18 128.86 53.15 128.7 53.15 128.43 53.16 128.13 53.19 127.89 53.2 127.67 53.2 127.43 53.21 127.06 53.19 126.86 53.18 126.67 53.18 126.45 53.22 126.37 53.24 126.26 53.28 126.17 53.33 126.1 53.38 126.02 53.44 125.96 53.5 125.89 53.59 125.84 53.67 125.76 53.85 125.71 54.03 125.67 54.27 125.65 54.47 125.67 54.94 125.72 55.32 125.82 55.8 125.95 56.3 126.06 56.62 126.22 57.06 126.33 57.46 126.4 57.91 126.39 58.42 126.36 58.82 126.05 59.32 125.98 59.37" style="fill:#fff"/><path d="M126,59.53a.17.17,0,0,1-.12-.07.15.15,0,0,1,0-.21l0,0,.27-.45,0-.37v-.49l-.07-.42-.11-.38-.26-.76-.14-.51-.1-.49,0-.39,0-.48v-.22l0-.26.06-.19.15-.3.15-.18.17-.13.23-.1.1,0,.24,0h.2l.59,0h.68l.57,0h.18l.34.06.18.08.14.09.14.12.11.15.14.29.07.26,0,.4,0,.44-.09.62-.57,2-.09.45,0,.34v.29l0,.26.06.17.05.1a.14.14,0,0,1-.06.21.14.14,0,0,1-.21-.06L129,59.1l-.07-.24,0-.3v-.32l0-.37.1-.49.16-.51.41-1.42.09-.58v-.41l0-.36-.05-.2-.11-.25-.08-.09-.19-.15-.25-.08-.31,0-1.26.06-.58,0h-.18l-.26,0-.23.11-.11.11-.1.15-.07.16,0,.15,0,.41,0,.45,0,.37.1.47.24.81.15.43.12.41.07.46v.54l0,.41a.14.14,0,0,1,0,.07l-.31.5,0,0-.06.05A.13.13,0,0,1,126,59.53Z" style="fill:#333"/></g><g id="LWPOLYLINE-5" data-name="LWPOLYLINE"><path d="M127.38,58.33l-.46-.08-.41-.2-.29-.22a.22.22,0,0,1,.29-.33l.3.23.25.1.12,0,.22,0,.26,0,.42-.11.21-.09.3-.17.31-.21a.22.22,0,0,1,.3.06.22.22,0,0,1-.06.31l-.32.21-.58.3-.26.08-.27.06Z" style="fill:#333"/></g><g id="LWPOLYLINE-6" data-name="LWPOLYLINE"><polygon points="124.99 51.8 124.59 51.7 124.3 51.52 124.03 51.22 123.86 50.81 123.85 50.38 123.93 50.06 124.06 49.82 124.28 49.58 124.5 49.43 124.78 49.32 125.02 49.28 125.43 49.25 125.81 49.14 126.11 48.99 126.4 48.81 126.63 48.61 126.8 48.39 126.99 48.11 127.06 48.05 127.32 47.85 127.48 47.78 127.87 47.7 128.15 47.72 128.5 47.83 128.75 48 128.91 48.17 129.06 48.4 129.08 48.46 129.48 48.83 129.81 49.03 130.03 49.14 130.27 49.22 130.59 49.27 130.98 49.3 131.2 49.36 131.56 49.57 131.75 49.78 131.92 50.07 131.99 50.32 132.01 50.57 131.95 50.92 131.84 51.18 131.66 51.41 131.48 51.57 131.26 51.69 131.05 51.77 130.88 51.8 130.86 51.82 130.85 51.91 130.84 52.03 130.79 52.21 130.74 52.31 130.62 52.34 130.07 52.28 129.36 52.2 128.79 52.15 127.86 52.15 126.98 52.14 126.14 52.22 125.48 52.27 125.19 52.32 125.11 52.3 125.07 52.24 125.04 52.16 125.01 52.03 124.99 51.8" style="fill:#333"/></g><polygon points="121.96 11.42 80.81 11.42 80.81 21.85 121.96 21.85 121.96 31.59 132.4 31.59 132.4 21.85 173.54 21.85 173.56 11.42 132.4 11.42 132.4 1.68 121.96 1.68 121.96 11.42" style="fill:#c8102e"/><path d="M173.55,31.28V30.6H80.82v.68l0,1.88V36l0,3.59.08,4.08L81.05,48l.23,4.37.33,4.16.44,3.76.55,3.37.64,3L84,69.45,84.79,72l.88,2.34.94,2.21,1,2.14,1,2.12,1.09,2.12L90.89,85l1.28,2.13,1.41,2.15,1.57,2.18,1.75,2.22L98.85,96,101,98.28l2.46,2.37,2.79,2.39,3.18,2.42,3.63,2.44,4.12,2.43,4.68,2.41,5.29,2.4,5.29-2.4,4.68-2.41,4.12-2.43,3.63-2.44,3.18-2.42,2.8-2.39,2.45-2.37L155.51,96l2-2.27,1.75-2.22,1.57-2.18,1.41-2.15L163.47,85l1.18-2.12,1.09-2.12,1-2.12,1-2.14.94-2.21.88-2.34.81-2.51.74-2.74.64-3,.55-3.37.44-3.76.33-4.16.23-4.37.14-4.34.08-4.08,0-3.59V33.16Zm-46.37,73.15a35.1,35.1,0,1,1,35.12-35.1A35.11,35.11,0,0,1,127.18,104.43Z" style="fill:#002677"/><path d="M127,116.22l-5.55-2.51-4.7-2.43-4.16-2.45-3.66-2.45-3.22-2.44-2.82-2.43-2.49-2.39-2.2-2.34-2-2.29-1.77-2.25L92.84,90l-1.43-2.17-1.3-2.16-1.19-2.14-1.1-2.13-2-4.29-1-2.23L84,72.56,83.14,70l-.75-2.78-.65-3.06-.56-3.4L80.74,57l-.33-4.18-.23-4.39L80,44.07l-.11-7.69V33.52L80.06.22h.87L174,.2l0,33.32L174,40l-.08,4.09-.14,4.35-.23,4.38L173.19,57l-.44,3.79-.55,3.39-.66,3.06L170.8,70,170,72.51l-.89,2.37-1,2.24-1,2.16-1,2.13L165,83.54l-1.19,2.14-1.29,2.15L161.11,90l-1.58,2.21-1.76,2.24-2,2.29-2.2,2.34-2.48,2.39-2.82,2.42-3.21,2.45-3.66,2.45-4.16,2.46-4.71,2.43ZM81.8,2l-.13,34.41L81.78,44l.15,4.33.22,4.34.33,4.13.44,3.72.54,3.32.64,3,.72,2.69L85.61,72l.87,2.28.92,2.17,2,4.22,1.08,2.09,1.16,2.09,1.26,2.09,1.39,2.12,1.54,2.14,1.72,2.19,1.92,2.23,2.15,2.28,2.41,2.33,2.75,2.35,3.14,2.38,3.57,2.4,4.07,2.39,4.63,2.39L127,114.3l4.84-2.19,4.63-2.4,4.07-2.4,3.57-2.4,3.13-2.38,2.75-2.35,2.41-2.33,2.14-2.28,1.92-2.23,1.71-2.18L159.67,89l1.39-2.11,1.26-2.1,1.15-2.08,1.08-2.09,2-4.22.93-2.18.86-2.29.79-2.46.72-2.69.64-3L171,60.5l.43-3.71.32-4.11.23-4.35.14-4.32.11-7.64V33.52l0-31.57Z" style="fill:#333"/><g id="LWPOLYLINE-7" data-name="LWPOLYLINE"><polygon points="133.58 60.78 133.41 60.49 133.16 60.1 132.82 59.58 132.4 59.05 132.24 58.88 132.16 58.81 132.09 58.76 132.01 58.71 131.9 58.68 131.8 58.67 131.69 58.66 131.58 58.67 131.44 58.68 131.04 58.75 130.68 58.85 130.48 58.91 130.31 58.98 130.22 59.03 130.05 59.1 129.73 59.22 129.39 59.32 129.01 59.4 128.61 59.47 128.21 59.52 127.84 59.55 127.08 59.58 125.59 59.57 124.46 59.58 124.1 59.6 123.78 59.63 123.54 59.67 123.38 59.7 123.23 59.74 123.08 59.78 122.93 59.84 122.83 59.89 122.69 59.97 122.6 60.05 122.43 60.19 122.12 60.51 121.79 60.92 121.55 61.24 121.21 61.72 121.01 62.01 120.79 62.36 120.41 62.85 120.67 62.65 120.92 62.52 121.15 62.44 121.41 62.39 121.69 62.33 122.09 62.29 122.5 62.26 123.07 62.26 123.41 62.27 125.77 62.33 126.76 62.32 129.14 61.86 133.58 60.78" style="fill:#fff"/><path d="M120.41,63.29a.46.46,0,0,1-.31-.13.44.44,0,0,1,0-.58l2.37-3,.68-.3.94-.15.38,0h2.65l1.86-.17,2.74-.74.46.06.15.08.16.11.27.26L134,60.56a.41.41,0,0,1,0,.39.44.44,0,0,1-.3.26l-4.44,1.08-2.4.46-1.07,0-3.27-.08-1.44.25-.2.1-.18.15A.41.41,0,0,1,120.41,63.29ZM125.59,60l-2.58.28-.29.23-.83,1-.27.4.85-.08h.6l2.71.07h1l2.29-.46,3.85-.93-.44-.67-.59-.69-.09,0h-.1l-.2,0-1.25.38-.72.24-1.25.21L127.1,60Z" style="fill:#333"/></g><polyline points="136.12 68 130.35 66.44 125.49 78.68 134.34 80.3 133.73 72.98 136.12 68" style="fill:#fff"/><path d="M120.6,73.35l-.36,3.39-.3,3.43-.55,5-.52,3.2-.43,2.13-.51,2.12-.59,2.13L117,96.36l-.34,2-.22,1.42-.2,1.37,22.82.19-1-4.11-.42-1.76-.32-1.4-.37-1.8-.23-1.51L136.45,87l-.11-3.49-.05-2.86,0-1.86v-.66l-.2.18-.54.58-.46.42-.6.6-.63-6.87.31-.77.68,6.69.69-.78,1-1.24.57-.71.63-.85.3-.67.42-1.17.27-.88.16-.79,0-.74-.18-1.55-.45-1.26-.91-2.18-.91-1.93-.2-.31-1.26-1.6-1.3-1.48-.25.06-4.23,1-1.65.36-.76.13-1,0-1.49-.08-1,0h-.75l-.8.08-.44.1-.36.13-.22.12-.25.19-.19.2-.2.26-.23.36-.17.32-.25.53-.24.62-.41,1.17-.36,1.11-.48,1.37-.26.5-.51.79-.61.85-.48.68-.43.64-.31.55-.27.64-.07.31,0,.26v.26l0,.15,0,.22.11.3.13.34.08.2.13.27.17.37.18.39L116,77l.08.22.07.31,0,.31.1.46.06.36.07.4.14.5.05.13.1.18.08.1.11.1.12,0h.27l.17-.06.12-.06.13-.09.09-.07.17-.17.23-.29.24-.35.26-.46.18-.37.45-1.06.34-.95.39-1.23.18-1.63.29-2.27.2-1.35.42-2.53.38.17L121,70.16Zm10.54-5.69,3.8,1-1.2,4.16-.5,0h-.75l-.41,0h-.26l-.19,0-.15,0-.16,0-.1,0h-.12l-.17,0-.11.17v.19l0,.13.06.1.06.07.11.1.13.1.36.21h0l-.05,0-.29,0-.36,0-.42,0-.38,0-.4.07-.43-.11Zm-1.92,7,0-.1.05-.09.07-.08.09-.07.22-.07.3-.06.2,0,.31,0,.42,0,.36,0,.31,0,.14,0,.08,0h0l.05-.05,0,0v0l0-.06-.07,0-.11-.07-.35-.21-.12-.08-.09-.08,0,0,0-.07,0-.07V73l0,0h.12l.09,0,.16,0,.16,0,.22,0h.28l.4,0h.74l.19,0,.18,0,.19,2.12-.16.12-.19.14-.17.08-.32.15-.26.11-.25.1-.35.12-.33.1-.43.1-.33,0h-.35l-.36,0-.39-.12-.27-.17-.17-.19-.15-.3-.06-.2,0-.27v-.25Z" style="fill:#333"/></g></svg>